<svg width="301" height="353" viewBox="0 0 301 353" fill="none" xmlns="http://www.w3.org/2000/svg">
<path d="M223.516 42.5461C223.516 42.2724 223.415 42.0241 223.239 41.8647C223.063 41.7057 222.844 41.6648 222.639 41.7526L221.593 42.2002C221.323 42.3155 221.142 42.6344 221.142 42.9936V45.9774C221.046 45.9094 220.935 45.8704 220.816 45.8704C220.447 45.8704 220.146 46.2496 220.146 46.7157C220.146 47.1817 220.447 47.5609 220.816 47.5609C221.186 47.5609 221.486 47.1817 221.486 46.7157V43.5701L223.172 42.8488V45.1088C223.076 45.0408 222.965 45.0018 222.847 45.0018C222.477 45.0018 222.177 45.381 222.177 45.8471C222.177 46.3132 222.477 46.6924 222.847 46.6924C223.216 46.6924 223.516 46.3132 223.516 45.8471V42.5461H223.516Z" fill="#314DCB"/>
<path d="M225.861 38.5169H226.228V39.0444C226.228 39.3028 226.372 39.5123 226.55 39.5123C226.727 39.5123 226.872 39.3028 226.872 39.0444V38.5169H227.239C227.416 38.5169 227.561 38.3074 227.561 38.0489C227.561 37.7905 227.416 37.5808 227.239 37.5808H226.872V37.0533C226.872 36.795 226.727 36.5854 226.55 36.5854C226.372 36.5854 226.228 36.795 226.228 37.0533V37.5808H225.861C225.683 37.5808 225.539 37.7904 225.539 38.0489C225.539 38.3074 225.683 38.5169 225.861 38.5169Z" fill="#314DCB"/>
<path d="M233.626 36.6925C233.626 36.4189 233.505 36.1705 233.293 36.0112C233.082 35.8522 232.82 35.8113 232.574 35.8991L231.318 36.3467C230.995 36.462 230.777 36.7809 230.777 37.1401V40.1239C230.662 40.0558 230.528 40.0169 230.386 40.0169C229.943 40.0169 229.583 40.3961 229.583 40.8621C229.583 41.3282 229.943 41.7074 230.386 41.7074C230.83 41.7074 231.19 41.3282 231.19 40.8621V37.7166L233.213 36.9953V39.2553C233.098 39.1873 232.964 39.1483 232.823 39.1483C232.379 39.1483 232.019 39.5275 232.019 39.9936C232.019 40.4597 232.379 40.8389 232.823 40.8389C233.266 40.8389 233.626 40.4597 233.626 39.9936V36.6925H233.626Z" fill="#314DCB"/>
<path d="M238.666 36.3216H239.033V36.8491C239.033 37.1075 239.177 37.317 239.355 37.317C239.533 37.317 239.677 37.1075 239.677 36.8491V36.3216H240.044C240.222 36.3216 240.366 36.1121 240.366 35.8536C240.366 35.5952 240.222 35.3855 240.044 35.3855H239.677V34.858C239.677 34.5996 239.533 34.3901 239.355 34.3901C239.177 34.3901 239.033 34.5996 239.033 34.858V35.3855H238.666C238.488 35.3855 238.344 35.595 238.344 35.8536C238.344 36.1121 238.488 36.3216 238.666 36.3216Z" fill="#314DCB"/>
<path d="M242.388 22.268C242.388 21.9259 242.206 21.6155 241.889 21.4163C241.572 21.2176 241.178 21.1664 240.809 21.2761L238.926 21.8356C238.441 21.9798 238.114 22.3784 238.114 22.8274V26.5571C237.941 26.4721 237.741 26.4234 237.528 26.4234C236.863 26.4234 236.322 26.8974 236.322 27.48C236.322 28.0625 236.863 28.5366 237.528 28.5366C238.193 28.5366 238.734 28.0625 238.734 27.48V23.548L241.769 22.6464V25.4714C241.595 25.3864 241.395 25.3377 241.182 25.3377C240.517 25.3377 239.976 25.8117 239.976 26.3943C239.976 26.9769 240.517 27.4509 241.182 27.4509C241.847 27.4509 242.388 26.9769 242.388 26.3943V22.268H242.388Z" fill="#314DCB"/>
<path d="M230.578 29.7364H230.945V30.2639C230.945 30.5222 231.09 30.7318 231.267 30.7318C231.445 30.7318 231.589 30.5222 231.589 30.2639V29.7364H231.956C232.134 29.7364 232.278 29.5269 232.278 29.2683C232.278 29.01 232.134 28.8003 231.956 28.8003H231.589V28.2728C231.589 28.0144 231.445 27.8049 231.267 27.8049C231.09 27.8049 230.945 28.0144 230.945 28.2728V28.8003H230.578C230.4 28.8003 230.256 29.0098 230.256 29.2683C230.256 29.5269 230.4 29.7364 230.578 29.7364Z" fill="#314DCB"/>
<path d="M257.89 18.9241C257.89 18.4793 257.688 18.0758 257.335 17.8169C256.983 17.5586 256.546 17.4921 256.135 17.6347L254.043 18.362C253.504 18.5495 253.141 19.0676 253.141 19.6514V24.5C252.948 24.3894 252.726 24.3261 252.49 24.3261C251.751 24.3261 251.15 24.9423 251.15 25.6997C251.15 26.457 251.751 27.0732 252.49 27.0732C253.229 27.0732 253.83 26.457 253.83 25.6997V20.5881L257.202 19.4161V23.0886C257.009 22.978 256.787 22.9147 256.55 22.9147C255.811 22.9147 255.21 23.5309 255.21 24.2883C255.21 25.0457 255.811 25.6618 256.55 25.6618C257.289 25.6618 257.89 25.0457 257.89 24.2883V18.9241H257.89Z" fill="#314DCB"/>
<path d="M246.08 26.0777H246.447V26.6052C246.447 26.8636 246.591 27.0731 246.769 27.0731C246.947 27.0731 247.091 26.8636 247.091 26.6052V26.0777H247.458C247.636 26.0777 247.78 25.8682 247.78 25.6097C247.78 25.3513 247.636 25.1416 247.458 25.1416H247.091V24.6141C247.091 24.3558 246.947 24.1462 246.769 24.1462C246.591 24.1462 246.447 24.3558 246.447 24.6141V25.1416H246.08C245.902 25.1416 245.758 25.3511 245.758 25.6097C245.758 25.8682 245.902 26.0777 246.08 26.0777Z" fill="#314DCB"/>
<path d="M9.10467 324.512L292.273 325.61" stroke="#EBE9E9"/>
<path d="M0 333.659H301" stroke="#EBE9E9"/>
<path d="M9.10467 341.205H292.273" stroke="#EBE9E9"/>
<path d="M0 349.024H301" stroke="#EBE9E9"/>
<path d="M273.855 329.775C273.855 328.543 273.227 327.426 272.131 326.709C271.038 325.993 269.681 325.809 268.407 326.204L261.91 328.218C260.236 328.737 259.111 330.172 259.111 331.789V345.216C258.512 344.909 257.822 344.734 257.088 344.734C254.794 344.734 252.928 346.44 252.928 348.538C252.928 350.635 254.794 352.341 257.088 352.341C259.382 352.341 261.248 350.635 261.248 348.538V334.383L271.717 331.137V341.307C271.118 341.001 270.428 340.825 269.695 340.825C267.401 340.825 265.534 342.532 265.534 344.629C265.534 346.727 267.401 348.433 269.695 348.433C271.989 348.433 273.855 346.727 273.855 344.629V329.775H273.855Z" fill="#BDCBE9"/>
<path d="M201.175 314.54L196.222 312.281C195.318 311.869 194.265 311.912 193.406 312.395C192.545 312.88 192.031 313.719 192.031 314.641V325.636C191.236 325.176 190.294 324.909 189.286 324.909C186.448 324.909 184.14 327.014 184.14 329.601C184.14 332.188 186.448 334.293 189.286 334.293C192.123 334.293 194.432 332.188 194.432 329.601V314.641C194.432 314.421 194.579 314.305 194.667 314.256C194.754 314.206 194.933 314.139 195.147 314.236L200.1 316.495C200.693 316.765 201.414 316.547 201.711 316.007C202.008 315.467 201.768 314.81 201.175 314.54V314.54Z" fill="#BDCBE9"/>
<path d="M123.921 330.54L118.967 328.281C118.064 327.869 117.011 327.912 116.152 328.395C115.291 328.88 114.777 329.719 114.777 330.641V341.636C113.982 341.176 113.04 340.909 112.032 340.909C109.194 340.909 106.886 343.014 106.886 345.601C106.886 348.188 109.194 350.293 112.032 350.293C114.869 350.293 117.177 348.188 117.177 345.601V330.641C117.177 330.421 117.325 330.305 117.413 330.256C117.5 330.206 117.679 330.139 117.893 330.236L122.846 332.495C123.438 332.765 124.16 332.547 124.456 332.007C124.753 331.467 124.513 330.81 123.921 330.54V330.54Z" fill="#BDCBE9"/>
<path fill-rule="evenodd" clip-rule="evenodd" d="M179.476 11.4213C185.958 13.8762 189.616 17.7506 194.752 24.532C199.888 31.3134 193.644 41.1478 188.977 39.3088C184.31 37.4698 167.962 28.9324 166.957 18.0415C166.957 18.0415 172.992 8.96636 179.476 11.4213Z" fill="#373A41"/>
<path fill-rule="evenodd" clip-rule="evenodd" d="M113.528 271.811C113.528 271.811 107.503 281.768 107.503 284.982C107.503 286.235 110.481 295.172 117.442 295.172C122.204 295.172 127.367 287.333 127.367 285.923C127.367 284.512 126.879 273.065 127.367 271.811C127.855 270.557 113.528 271.811 113.528 271.811" fill="#32465D"/>
<path fill-rule="evenodd" clip-rule="evenodd" d="M169.703 273.888C169.703 273.888 168.82 285.531 170.408 286.119C171.995 286.707 179.96 287.293 181.181 289.059C182.402 290.823 192.661 296.569 199.255 295.988C205.849 295.408 206.704 293.174 202.918 289.529C199.132 285.883 190.95 280.238 187.044 277.064C183.135 273.888 183.868 272.007 183.868 272.007L169.703 273.888Z" fill="#32465D"/>
<path fill-rule="evenodd" clip-rule="evenodd" d="M175.046 128.798C175.046 128.798 145.767 130.636 141.615 129.414C141.615 129.414 133.798 143.243 133.798 163.469C133.798 183.695 130.503 198.981 129.769 201.099C129.036 203.215 123.541 207.684 118.9 228.144C114.26 248.606 110.597 272.361 110.597 272.361C110.597 272.361 119.39 277.769 128.671 275.653C128.671 275.653 137.193 230.366 147.944 209.438C148.282 208.782 148.543 208.118 148.725 207.408C150.378 200.935 159.096 166.747 160.422 159.941C160.422 159.941 164.329 203.709 163.84 206.638C163.352 209.566 161.021 220.661 163.597 232.849C165.759 243.082 167.636 274.262 167.636 274.262C167.636 274.262 179.227 275.889 186.311 272.007C186.311 272.007 181.494 222.204 182.647 209.8C184.246 192.618 184.367 170.575 184.661 165.623C185.392 153.308 184.542 140.457 175.046 128.798" fill="#C5D4F2"/>
<path fill-rule="evenodd" clip-rule="evenodd" d="M162.519 151.239C163.041 146.838 163.432 142.38 163.515 137.99C163.568 135.153 163.315 132.259 163.438 129.409C161.924 129.477 160.375 129.546 158.779 129.605C159.472 136.569 159.824 144.014 159.253 151.239H162.519Z" fill="#92ACE0"/>
<path fill-rule="evenodd" clip-rule="evenodd" d="M146.885 208.055C144.854 208.78 142.743 208.689 140.556 208.466C137.424 208.149 133.555 206.986 132.154 203.9C131.846 203.219 131.552 202.583 131.332 201.915C130.157 206.501 130.836 210.982 135.344 212.268C137.715 212.945 144.627 212.354 146.885 208.055" fill="#92ACE0"/>
<path fill-rule="evenodd" clip-rule="evenodd" d="M162.962 163.804C163.72 160.208 164.517 156.639 165.979 153.366C163.23 153.796 160.296 154.692 157.571 153.708C155.981 153.134 154.495 151.303 152.914 150.445C156.39 156.757 156.672 164.482 157.603 172.051C158.949 166.538 160.022 161.989 160.421 159.94C160.421 159.94 160.879 165.073 161.462 171.931C161.831 169.233 162.387 166.533 162.962 163.804" fill="#92ACE0"/>
<path fill-rule="evenodd" clip-rule="evenodd" d="M177.26 212.27C178.865 212.526 180.951 212.456 182.516 212.02C182.544 211.191 182.588 210.443 182.647 209.8C182.754 208.662 182.842 207.477 182.935 206.301C181.052 208.006 178.744 209.242 175.996 209.598C174.998 209.728 174.044 209.783 173.121 209.783C173.131 210.26 176.101 212.083 177.26 212.27" fill="#92ACE0"/>
<path fill-rule="evenodd" clip-rule="evenodd" d="M174.866 130.17C174.866 130.17 148.066 131.839 144.266 130.729C144.266 130.729 138.825 140.361 137.454 155.054C138.549 154.526 139.592 153.981 140.545 153.475C141.035 153.214 141.515 152.94 141.98 152.653C146.653 149.785 150.026 145.402 152.242 140.537C152.951 138.982 155.741 134.957 163.895 136.068C167.548 136.565 170.01 139.153 172.026 142.403C174.578 146.516 176.769 149.325 180.838 152.185C181.82 152.876 182.79 153.574 183.746 154.284C183.298 146.076 181.162 137.839 174.866 130.17" fill="#737A79"/>
<path fill-rule="evenodd" clip-rule="evenodd" d="M174.12 58.0947C170.515 57.4417 167.916 55.6208 165.938 52.4091C164.909 50.7403 163.373 49.3823 161.845 47.9087C162.141 50.5969 163.174 62.894 157.605 65.5546C157.605 65.5546 154.028 82.5094 165.355 83.0018C176.683 83.4924 175.936 71.0207 175.936 71.0207C175.936 71.0207 171.951 65.9847 174.12 58.0947" fill="#FCC9A7"/>
<path fill-rule="evenodd" clip-rule="evenodd" d="M164.424 59.4217C164.667 61.944 165.515 65.5185 166.954 67.6745C168.674 70.2521 171.997 70.0535 174.963 69.3693C173.947 67.2807 172.684 63.3192 174.12 58.0949C170.516 57.4419 167.917 55.621 165.936 52.4093C165.215 51.2363 164.236 50.2187 163.191 49.2029C164.144 52.4854 164.115 56.2015 164.424 59.4217" fill="#E5AC87"/>
<path fill-rule="evenodd" clip-rule="evenodd" d="M173.407 22.7553C173.407 19.0482 175.523 15.5868 183.347 21.6714C191.173 27.7578 192.09 36.0547 191.147 42.0148C190.204 47.9749 182.084 61.2115 175.946 61.6469C169.806 62.0805 165.019 56.514 162.671 50.3222C160.325 44.1304 159.02 38.7558 158.573 34.9119C158.126 31.0679 157.117 19.7503 166.507 21.6714L173.407 22.7553Z" fill="#FCC9A7"/>
<path fill-rule="evenodd" clip-rule="evenodd" d="M166.508 42.6236C166.508 42.6236 168.097 53.3254 175.086 53.3254C178.212 56.1206 184.329 56.4737 184.817 54.5898C184.565 55.5722 179.926 62.8156 173.858 62.4828C170.862 62.3184 163.876 53.8254 163.876 53.8254C163.876 53.8254 163.037 51.9896 164.22 43.7063C163.516 41.681 166.508 42.6236 166.508 42.6236Z" fill="#373A41"/>
<path fill-rule="evenodd" clip-rule="evenodd" d="M172.023 54.2002C172.023 54.2002 174.523 54.3432 175.648 51.7114C176.772 49.0795 185.757 49.9269 185.757 52.5588C185.757 55.1906 183.758 56.187 183.758 56.187V55.5447C183.758 55.5447 183.758 56.1007 183.758 54.2002C183.758 52.2998 180.486 51.3873 176.51 53.8357C172.534 56.284 173.134 55.0414 173.134 55.0414L172.023 54.2002Z" fill="#373A41"/>
<path fill-rule="evenodd" clip-rule="evenodd" d="M187.504 42.0147C194.339 35.7994 191.943 28.6247 192.428 29.0393C192.437 29.048 191.806 25.7373 185.177 20.2237C173.334 10.3736 170.265 23.6375 172.88 24.1264C175.03 23.831 178.094 23.9904 180.304 24.9907C192.428 29.3042 185.784 39.7826 187.504 42.0147Z" fill="#282A2F"/>
<path fill-rule="evenodd" clip-rule="evenodd" d="M166.334 43.3999C166.439 43.0302 166.506 42.6224 166.508 42.1715C166.521 38.274 170.062 24.9818 172.88 24.1266C172.88 24.1266 172.24 13.0049 168.38 13.6745C160.16 15.1003 158.583 19.5363 157.069 23.6999C155.555 27.8634 156.875 34.8373 156.697 35.7996C156.524 36.7515 162.989 42.2147 162.592 44.5574C163.546 43.8473 164.79 43.4016 166.334 43.3999Z" fill="#373A41"/>
<path fill-rule="evenodd" clip-rule="evenodd" d="M164.219 43.9871C164.219 43.9871 164.483 32.723 157.717 36.6188C157.717 36.6188 155.872 39.2361 157.146 42.2249C158.419 45.2137 161.145 47.9347 162.616 48.2301C162.616 48.2301 162.945 46.5474 164.219 43.9871" fill="#FCC9A7"/>
<path fill-rule="evenodd" clip-rule="evenodd" d="M159.785 63.636L150.525 68.1157L149.854 132.749C149.854 132.749 159.412 138.16 175.947 132.037C175.947 132.037 172.791 91.1984 179.174 73.1482C179.174 73.1482 176.488 70.6708 174.238 67.5801L166.956 73.3504L159.785 63.636Z" fill="#699FFF"/>
<path fill-rule="evenodd" clip-rule="evenodd" d="M155.89 77.4529L166.508 74.0585L160.891 58.7937L158.303 62.4939L155.89 77.4529Z" fill="#C2D8FF"/>
<path fill-rule="evenodd" clip-rule="evenodd" d="M173.71 65.4624L166.957 74.0584L172.994 78.6203L174.963 70.302L173.71 65.4624Z" fill="#C2D8FF"/>
<path fill-rule="evenodd" clip-rule="evenodd" d="M176.452 70.3198C176.452 70.3198 190.737 77.3599 192.428 78.7178C192.428 78.7178 182.177 94.484 184.235 111.731C184.235 111.731 177.505 128.8 178.212 130.17C178.917 131.541 187.413 143.286 187.413 143.286L185.177 153.46C185.177 153.46 166.246 132.659 164.758 125.8C163.267 118.942 172.198 82.5583 176.452 70.3198" fill="white"/>
<path fill-rule="evenodd" clip-rule="evenodd" d="M158.303 62.4939C157.386 61.9861 158.939 68.1162 159.111 77.4529C159.449 95.7238 158.997 124.902 155.89 131.032C151.196 140.296 139.795 156.525 139.795 156.525C139.795 156.525 131.075 147.128 130.628 141.363C130.628 141.363 142.253 126.841 141.583 125.347C140.912 123.852 133.312 110.185 133.759 98.4407C133.759 98.4407 142.701 80.8018 139.795 63.9955C139.795 63.9955 155.265 62.6062 158.303 62.4939Z" fill="white"/>
<path fill-rule="evenodd" clip-rule="evenodd" d="M139.795 63.9954C139.795 63.9954 99.7767 101.657 100.001 110.137C100.223 118.617 133.709 134.562 142.924 136.128L147.396 126.627C147.396 126.627 121.138 113.115 120.759 110.069C120.495 107.942 133.759 98.4406 133.759 98.4406C133.759 98.4406 145.383 80.5874 139.795 63.9954" fill="white"/>
<path fill-rule="evenodd" clip-rule="evenodd" d="M192.428 78.718C192.428 78.718 198.791 100.674 203.209 118.26C203.544 119.586 204.81 120.497 206.237 120.435C212.556 120.169 235.866 116.202 235.866 116.202L239.065 125.718C239.065 125.718 199.945 135.721 197.076 134.162C192.656 131.759 184.235 122.427 183.938 112.491C183.938 112.491 180.006 92.7359 192.428 78.718" fill="white"/>
<path fill-rule="evenodd" clip-rule="evenodd" d="M261.558 120.932C261.558 120.932 263.475 121.21 263.671 119.852C263.864 118.504 262.792 117.571 262.526 117.692C262.258 117.815 260.433 118.594 260.695 119.132C260.956 119.667 261.006 120.724 261.558 120.932" fill="#3D3E43"/>
<path fill-rule="evenodd" clip-rule="evenodd" d="M260.404 117.556C260.458 117.582 261.778 118.086 262.842 117.236C263.894 116.393 262.379 113.928 261.283 114.28C260.179 114.633 259.465 115.818 259.637 116.454C259.809 117.091 260.404 117.556 260.404 117.556" fill="#3D3E43"/>
<path fill-rule="evenodd" clip-rule="evenodd" d="M257.081 120.497C257.081 120.497 253.707 120.299 254.106 116.353C254.106 116.353 235.454 103.802 232.788 103.653C230.098 103.505 233.949 100.687 233.949 100.687L256.248 115.259C256.248 115.259 259.623 118.86 257.081 120.497" fill="#B2B2B2"/>
<path fill-rule="evenodd" clip-rule="evenodd" d="M258.782 114.931C258.782 114.931 257.364 117.211 257.363 117.928C257.361 118.648 258.334 118.248 259.376 120.191C260.132 121.601 259.439 122.949 261.083 124.496C261.72 125.094 262.881 126.2 264.407 126.157C264.407 126.157 263.485 124.754 263.548 123.185L263.277 123.785C263.277 123.785 261.609 122.102 261.101 118.889C260.629 115.907 259.499 115.413 258.782 114.931" fill="#E3EDF2"/>
<mask id="mask0_20_437" style="mask-type:luminance" maskUnits="userSpaceOnUse" x="263" y="120" width="6" height="8">
<path fill-rule="evenodd" clip-rule="evenodd" d="M263.238 120.24H268.217V127.025H263.238V120.24Z" fill="white"/>
</mask>
<g mask="url(#mask0_20_437)">
<path fill-rule="evenodd" clip-rule="evenodd" d="M264.239 126.086C264.239 126.086 262.505 124.075 263.602 122.143C264.686 120.236 266.306 119.566 267.464 121.046C268.623 122.532 268.506 125.369 266.683 126.68C265.241 127.717 264.239 126.086 264.239 126.086" fill="#A29798"/>
</g>
<path fill-rule="evenodd" clip-rule="evenodd" d="M257.362 117.929C257.362 117.929 259.636 118.832 259.867 120.631C260.101 122.445 260.046 124.44 264.239 126.087C264.239 126.087 262.68 124.463 264.23 122.78C265.762 121.12 268.315 122.7 267.493 125.855C266.653 129.07 259.336 128.612 256.695 122.424C256.695 122.424 256.324 119.584 257.362 117.929" fill="#B2B2B2"/>
<path fill-rule="evenodd" clip-rule="evenodd" d="M233.839 93.8997C233.839 93.8997 232.086 102.465 227.78 106.202C223.325 110.068 216.604 110.17 213.739 106.63C210.891 103.111 210.491 102.916 206.118 102.669C206.118 102.669 205.776 102.714 205.998 101.213C206.219 99.7235 204.446 95.1263 197.317 96.3529C197.317 96.3529 196.103 98.8839 195.282 98.4865C194.463 98.0874 194.061 95.0814 192.976 94.9397C191.887 94.7963 178.988 98.6886 172.081 92.5003C165.192 86.3327 168.731 75.5334 176.062 66.5723C176.062 66.5723 214.855 81.1309 233.839 93.8997" fill="#B2B2B2"/>
<path fill-rule="evenodd" clip-rule="evenodd" d="M222.271 87.4018C221.6 86.9336 220.929 86.4672 220.255 86.0007C222.79 87.3224 225.252 88.6595 227.565 90.0019C227.319 90.1021 227.071 90.204 226.825 90.3077C225.283 89.3782 223.747 88.4315 222.271 87.4018" fill="#955D58"/>
<path fill-rule="evenodd" clip-rule="evenodd" d="M232.486 98.4778C232.486 98.4778 229.131 105.689 219.124 104.319C219.124 104.319 217.346 104.267 214.57 101.612C211.801 98.9632 210.918 98.3949 208.636 98.8423C208.636 98.8423 207.954 98.4398 207.614 96.3649C207.278 94.3073 199.124 91.106 196.796 94.9137C196.796 94.9137 196.766 95.0364 196.057 93.4418C195.355 91.8541 196.201 92.2705 185.5 92.0752C174.386 91.8748 166.245 78.5739 176.06 66.5722C185.049 55.5811 199.088 57.3726 205.371 64.9171C211.734 72.5584 210.987 72.1178 213.557 71.8189C213.557 71.8189 216.042 80.5814 223.624 77.2523C223.624 77.2523 224.188 76.7167 224.404 77.7671C224.619 78.8244 224.27 80.59 230.365 84.2025C236.424 87.7959 234.577 95.0277 232.486 98.4778" fill="url(#paint0_linear_20_437)"/>
<path fill-rule="evenodd" clip-rule="evenodd" d="M236.701 103.946C236.701 103.946 233.98 102.856 231.955 103.996C229.902 105.153 229.267 105.734 227.974 105.031C227.974 105.031 229.92 101.557 231.002 100.216C232.069 98.8891 238.366 102.534 236.701 103.946" fill="#B2B2B2"/>
<path fill-rule="evenodd" clip-rule="evenodd" d="M213.642 90.8478L217.867 85.1934C217.867 85.1934 253.762 110.911 258.683 115.282L257.52 118.035C257.52 118.035 237.384 104.209 213.642 90.8478" fill="#DDE6EC"/>
<path fill-rule="evenodd" clip-rule="evenodd" d="M258.573 124.458L259.351 122.808C259.351 122.808 260.08 122.607 260.042 123.509L259.358 125.19L258.573 124.458Z" fill="#3D3E43"/>
<path fill-rule="evenodd" clip-rule="evenodd" d="M258.765 124.436C258.765 124.436 258.145 123.833 257.501 125.066C256.854 126.309 256.718 126.31 257.803 127.109C258.888 127.907 259.156 127.751 259.464 127.027C259.769 126.305 260.022 124.933 258.765 124.436" fill="#3D3E43"/>
<path fill-rule="evenodd" clip-rule="evenodd" d="M257.471 123.321L258.601 121.602C258.601 121.602 258.61 120.661 257.735 120.687L256.444 122.371C256.444 122.371 256.543 122.934 257.471 123.321" fill="#3D3E43"/>
<path fill-rule="evenodd" clip-rule="evenodd" d="M257.489 122.998C257.489 122.998 257.925 123.763 257.648 124.148C257.371 124.535 256.93 125.826 255.644 124.931C254.36 124.036 253.725 123.492 254.28 122.709C254.832 121.93 255.34 121.474 256.018 121.949C256.696 122.422 257.489 122.998 257.489 122.998" fill="#3D3E43"/>
<path fill-rule="evenodd" clip-rule="evenodd" d="M208.401 90.8572L209.244 90.1644C209.244 90.1644 210.888 91.3737 210.15 92.127C209.407 92.8854 206.988 94.0308 204.268 91.3478C201.555 88.6717 200.743 88.6493 199.841 89.5891C199.841 89.5891 199.472 90.3458 200.787 90.3354C200.787 90.3354 199.971 91.3875 199.792 91.2977C199.611 91.2113 198.499 90.0193 199.855 89.0017C201.199 87.9962 202.794 88.7858 203.726 89.5131C204.657 90.2387 205.469 91.6899 207.079 91.968C208.678 92.2427 209.578 92.3084 209.752 91.4515C209.774 91.3392 208.401 90.8572 208.401 90.8572" fill="#3D3E43"/>
<path fill-rule="evenodd" clip-rule="evenodd" d="M215.75 80.1919L215.456 81.187C215.456 81.187 217.658 81.8676 217.98 80.8743C218.248 80.0519 218.073 78.4038 215.398 77.6384C214.835 77.4795 214.244 77.4657 213.67 77.5261C211.254 77.7732 210.522 76.2201 211.108 75.5307C211.108 75.5307 211.695 75.1386 212.108 75.7778C212.108 75.7778 212.784 75.0833 212.648 75.0246C212.511 74.9658 211.104 74.7775 210.55 75.7139C209.939 76.7487 210.994 77.9961 212.07 78.2777C213.162 78.5627 215.177 77.8889 216.186 78.7821C217.268 79.7392 217.828 80.3542 217.078 80.9123C216.977 80.9883 215.75 80.1919 215.75 80.1919" fill="#3D3E43"/>
<path fill-rule="evenodd" clip-rule="evenodd" d="M198.194 79.9355L197.999 80.2413L207.678 84.6865L207.863 84.379L198.194 79.9355Z" fill="#EECEB0"/>
<path fill-rule="evenodd" clip-rule="evenodd" d="M198.912 78.6204L198.722 78.9244L208.344 83.2607L208.521 82.9532L198.912 78.6204Z" fill="#EECEB0"/>
<path fill-rule="evenodd" clip-rule="evenodd" d="M199.497 77.7634L199.327 78.0744L209.378 82.098L209.537 81.787L199.497 77.7634Z" fill="#EECEB0"/>
<path fill-rule="evenodd" clip-rule="evenodd" d="M200.381 76.7781L200.211 77.0873L210.24 81.1248L210.398 80.8138L200.381 76.7781Z" fill="#EECEB0"/>
<path fill-rule="evenodd" clip-rule="evenodd" d="M198.17 80.9468L196.792 80.14L197.345 79.0879L198.915 79.8722L198.17 80.9468Z" fill="#3D3E43"/>
<path fill-rule="evenodd" clip-rule="evenodd" d="M199.043 79.6142L197.667 78.8212L198.143 77.8796L199.705 78.6622L199.043 79.6142Z" fill="#3D3E43"/>
<path fill-rule="evenodd" clip-rule="evenodd" d="M199.87 78.4999L198.496 77.7139L198.922 76.8449L200.478 77.6258L199.87 78.4999Z" fill="#3D3E43"/>
<path fill-rule="evenodd" clip-rule="evenodd" d="M200.543 77.5313L199.179 76.7418L199.646 75.814L201.194 76.5932L200.543 77.5313Z" fill="#3D3E43"/>
<path fill-rule="evenodd" clip-rule="evenodd" d="M176.061 66.5726C176.325 66.2495 176.595 65.9403 176.866 65.6396C178.855 66.7764 187.143 71.13 189.993 71.6621C193.75 72.3653 196.607 72.5536 200.246 75.5182L196.249 81.2176C196.249 81.2176 190.252 79.1099 188.344 76.1004C186.745 73.5832 178.23 69.6408 174.762 68.3399C175.157 67.7473 175.582 67.1582 176.061 66.5726" fill="#3D3E43"/>
<path fill-rule="evenodd" clip-rule="evenodd" d="M207.158 87.2002L207.233 84.296L210.764 79.9373C210.764 79.9373 211.694 81.8705 211.643 82.0657C211.594 82.2592 208.174 87.2192 207.962 87.309C207.753 87.3988 207.15 87.5232 207.158 87.2002" fill="#E8A751"/>
<path fill-rule="evenodd" clip-rule="evenodd" d="M207.234 84.2965L210.765 79.9377C210.765 79.9377 211.693 81.8709 211.644 82.0644C211.593 82.2597 208.175 87.2179 207.963 87.3095L207.234 84.2965Z" fill="#FFC27E"/>
<path fill-rule="evenodd" clip-rule="evenodd" d="M208.71 85.3934L257.397 117.102L259.544 119.408L257.601 116.81L208.949 85.1152L208.71 85.3934Z" fill="#EECEB0"/>
<path fill-rule="evenodd" clip-rule="evenodd" d="M209.427 84.2791L257.761 116.608L259.685 118.785L257.969 116.319L209.669 84.0061L209.427 84.2791Z" fill="#EECEB0"/>
<path fill-rule="evenodd" clip-rule="evenodd" d="M210.123 83.1967L258.041 116.153L259.89 118.288L258.253 115.869L210.367 82.9307L210.123 83.1967Z" fill="#EECEB0"/>
<path fill-rule="evenodd" clip-rule="evenodd" d="M210.938 82.2804L258.256 115.558L260.171 117.864L258.471 115.276L211.186 82.0178L210.938 82.2804Z" fill="#EECEB0"/>
<path fill-rule="evenodd" clip-rule="evenodd" d="M256.877 110.416C256.029 109.298 254.626 108.476 253.927 108.892C253.401 109.205 252.493 112.437 252.349 112.646C252.486 112.149 254.291 108.452 252.907 107.301C251.641 106.249 250.203 105.361 248.648 111.511C248.675 111.406 251.417 106.297 249.572 105.161C249.572 105.161 248.227 104.259 247.63 104.891C247.085 105.466 246.36 107.408 245.204 110.038C245.204 110.038 248.116 104.537 246.534 103.17C244.41 101.336 243.624 102.849 243.624 102.849C243.624 102.849 243.021 106.546 241.752 108.906C239.826 112.487 239.802 114.44 239.093 115.243C238.301 116.14 237.478 117.09 236.364 117.682L238.476 123.964C240.918 123.81 247.349 122.342 252.072 120.517C253.844 119.833 257.726 111.534 256.877 110.416" fill="#FCC9A7"/>
<path fill-rule="evenodd" clip-rule="evenodd" d="M245.619 109.532C246.894 108.444 246.465 107.11 246.465 107.11C246.465 107.11 244.868 109.408 244.83 110.355C245.096 110.082 245.326 109.783 245.619 109.532" fill="#E5AC87"/>
<path fill-rule="evenodd" clip-rule="evenodd" d="M248.752 111.12C249.982 109.489 250.016 107.693 250.016 107.693C250.016 107.693 248.036 111.267 247.998 112.214C248.262 111.943 248.522 111.424 248.752 111.12" fill="#E5AC87"/>
<path fill-rule="evenodd" clip-rule="evenodd" d="M251.937 113.549C253.167 111.92 253.201 110.121 253.201 110.121C253.201 110.121 251.221 113.698 251.183 114.643C251.447 114.371 251.707 113.853 251.937 113.549" fill="#E5AC87"/>
<path fill-rule="evenodd" clip-rule="evenodd" d="M230.732 58.3116C230.732 58.3116 159.511 137.11 159.044 137.611C158.578 138.112 159.095 140.069 160.063 139.561C161.032 139.055 233.03 59.1651 233.03 59.1651C233.03 59.1651 234.532 55.9603 230.732 58.3116" fill="#8E4E37"/>
<path fill-rule="evenodd" clip-rule="evenodd" d="M169.369 123.769C168.363 122.914 162.196 123.484 160.034 123.27C157.875 123.058 149.75 128.173 148.468 128.467C148.148 128.541 147.471 128.42 146.639 128.197C146.596 128.598 143.612 134.709 143.612 134.709C146.688 135.752 150.743 137.039 152.284 137.775C153.961 138.577 158.973 136.155 159.756 135.567C160.539 134.98 161.32 135.728 163.612 137.488C165.903 139.251 166.799 137.115 166.799 137.115C171.4 137.4 169.088 134.126 169.088 134.126L169.705 135.087C172.722 134.819 171.474 131.67 171.474 131.67C175.498 132.096 170.374 124.623 169.369 123.769" fill="#FCC9A7"/>
<path fill-rule="evenodd" clip-rule="evenodd" d="M167.73 126.326C167.393 126.165 160.891 126.229 160.891 126.229C160.891 126.229 162.327 126.889 167.263 127.31C167.681 127.345 170.553 130.652 171.573 131.987C171.52 131.804 171.473 131.671 171.473 131.671C171.658 131.69 171.804 131.676 171.953 131.664C171.953 131.664 168.064 126.486 167.73 126.326" fill="#E5AC87"/>
<path fill-rule="evenodd" clip-rule="evenodd" d="M165.848 130.1C164.842 129.979 159.999 129.543 159.999 129.543C160.445 130.388 164.101 129.944 166.146 131.661C167.287 132.622 169.329 134.514 169.185 134.275L169.704 135.087C169.993 135.061 170.21 134.989 170.427 134.916C169.874 133.61 166.772 130.21 165.848 130.1" fill="#E5AC87"/>
<path fill-rule="evenodd" clip-rule="evenodd" d="M167.773 137.111C167.333 135.964 165.44 133.672 164.772 133.205C163.915 132.607 159.14 132.488 159.14 132.488C158.694 133.343 163.543 133.483 164.288 134.124C164.803 134.567 165.887 136.27 166.766 137.182C166.782 137.149 166.798 137.115 166.798 137.115C167.171 137.139 167.485 137.132 167.773 137.111" fill="#E5AC87"/>
<path d="M166.155 74.4932L166.689 74.535L162.414 125.211L161.88 125.169L166.155 74.4932Z" fill="#6F8FBA" fill-opacity="0.3"/>
<path d="M44 318.869C44 317.607 43.3996 316.461 42.3528 315.726C41.3079 314.993 40.0105 314.804 38.7932 315.209L32.5845 317.273C30.9841 317.806 29.9089 319.276 29.9089 320.933V334.696C29.3364 334.382 28.6774 334.202 27.976 334.202C25.7837 334.202 24 335.951 24 338.101C24 340.251 25.7837 342 27.976 342C30.1682 342 31.9519 340.251 31.9519 338.101V323.592L41.957 320.265V330.69C41.3842 330.376 40.7253 330.196 40.024 330.196C37.8315 330.196 36.0481 331.945 36.0481 334.095C36.0481 336.245 37.8315 337.994 40.024 337.994C42.2163 337.994 43.9997 336.245 43.9997 334.095V318.869H44Z" fill="#BDCBE9"/>
<defs>
<linearGradient id="paint0_linear_20_437" x1="236.705" y1="106.149" x2="247.664" y2="60.4821" gradientUnits="userSpaceOnUse">
<stop stop-color="#EFFDFF"/>
<stop offset="1" stop-color="#CED4DD"/>
</linearGradient>
</defs>
</svg>
