<svg width="975" height="1069" viewBox="0 0 975 1069" fill="none" xmlns="http://www.w3.org/2000/svg">
<g filter="url(#filter0_d_4_40)">
<path fill-rule="evenodd" clip-rule="evenodd" d="M100.476 2.43422C106.959 4.96439 110.616 8.95746 115.752 15.9467C120.888 22.9359 114.644 33.0717 109.977 31.1764C105.311 29.281 88.9626 20.482 87.957 9.25732C87.957 9.25732 93.9925 -0.0959587 100.476 2.43422Z" fill="#373A41"/>
<path fill-rule="evenodd" clip-rule="evenodd" d="M34.5276 270.804C34.5276 270.804 28.5029 281.066 28.5029 284.378C28.5029 285.67 31.4807 294.881 38.4419 294.881C43.2039 294.881 48.367 286.802 48.367 285.349C48.367 283.894 47.879 272.096 48.367 270.804C48.8551 269.511 34.5276 270.804 34.5276 270.804Z" fill="#32465D"/>
<path fill-rule="evenodd" clip-rule="evenodd" d="M90.7028 272.945C90.7028 272.945 89.8196 284.944 91.4083 285.55C92.9949 286.156 100.96 286.76 102.181 288.58C103.402 290.398 113.661 296.32 120.255 295.722C126.849 295.124 127.704 292.822 123.918 289.064C120.132 285.307 111.95 279.489 108.044 276.218C104.135 272.945 104.868 271.005 104.868 271.005L90.7028 272.945Z" fill="#32465D"/>
<path fill-rule="evenodd" clip-rule="evenodd" d="M96.0458 123.408C96.0458 123.408 66.7664 125.302 62.6149 124.043C62.6149 124.043 54.7981 138.296 54.7981 159.141C54.7981 179.987 51.5023 195.742 50.7692 197.924C50.0361 200.105 44.541 204.711 39.8996 225.798C35.2601 246.887 31.5967 271.37 31.5967 271.37C31.5967 271.37 40.3896 276.944 49.6706 274.763C49.6706 274.763 58.1928 228.089 68.9438 206.52C69.2817 205.843 69.5426 205.159 69.7243 204.427C71.3782 197.756 80.096 162.52 81.4219 155.506C81.4219 155.506 85.3283 200.615 84.8403 203.633C84.3522 206.651 82.0206 218.086 84.5972 230.648C86.7589 241.194 88.636 273.33 88.636 273.33C88.636 273.33 100.227 275.006 107.311 271.006C107.311 271.006 102.493 219.676 103.647 206.892C105.246 189.184 105.366 166.466 105.661 161.361C106.392 148.669 105.542 135.425 96.0458 123.408Z" fill="#C5D4F2"/>
<path fill-rule="evenodd" clip-rule="evenodd" d="M83.5188 146.537C84.0404 142.001 84.4317 137.406 84.5146 132.882C84.568 129.958 84.3151 126.975 84.4376 124.038C82.924 124.108 81.3749 124.179 79.7783 124.24C80.4719 131.417 80.8236 139.091 80.2525 146.537H83.5188Z" fill="#92ACE0"/>
<path fill-rule="evenodd" clip-rule="evenodd" d="M67.8853 205.094C65.854 205.841 63.7437 205.747 61.5564 205.518C58.4245 205.19 54.5556 203.992 53.1547 200.811C52.8464 200.109 52.552 199.454 52.3327 198.766C51.157 203.492 51.8367 208.11 56.3439 209.436C58.715 210.134 65.6268 209.524 67.8853 205.094Z" fill="#92ACE0"/>
<path fill-rule="evenodd" clip-rule="evenodd" d="M83.9617 159.487C84.7205 155.781 85.5168 152.102 86.979 148.729C84.2304 149.172 81.2962 150.096 78.5713 149.082C76.9807 148.49 75.4948 146.603 73.9141 145.719C77.3897 152.224 77.6723 160.185 78.603 167.986C79.9486 162.305 81.0215 157.616 81.4206 155.504C81.4206 155.504 81.8791 160.795 82.462 167.863C82.8315 165.082 83.3867 162.299 83.9617 159.487Z" fill="#92ACE0"/>
<path fill-rule="evenodd" clip-rule="evenodd" d="M98.2602 209.438C99.8647 209.702 101.951 209.63 103.516 209.181C103.544 208.326 103.587 207.555 103.647 206.892C103.753 205.72 103.842 204.498 103.935 203.286C102.052 205.043 99.7441 206.318 96.9956 206.684C95.9977 206.818 95.0434 206.875 94.1206 206.875C94.1305 207.367 97.1003 209.246 98.2602 209.438Z" fill="#92ACE0"/>
<path fill-rule="evenodd" clip-rule="evenodd" d="M95.8662 124.822C95.8662 124.822 69.0659 126.542 65.2659 125.399C65.2659 125.399 59.8255 135.325 58.4546 150.469C59.5488 149.924 60.5924 149.363 61.5456 148.841C62.0357 148.572 62.515 148.289 62.9798 147.994C67.6533 145.038 71.0264 140.521 73.242 135.507C73.951 133.904 76.7417 129.756 84.8951 130.9C88.5485 131.413 91.0101 134.081 93.0267 137.43C95.5787 141.669 97.7689 144.564 101.838 147.511C102.82 148.224 103.79 148.943 104.747 149.675C104.298 141.215 102.162 132.726 95.8662 124.822Z" fill="#737A79"/>
<path fill-rule="evenodd" clip-rule="evenodd" d="M95.1201 50.538C91.5155 49.8649 88.9165 47.9882 86.9379 44.6782C85.9087 42.9581 84.3732 41.5586 82.8449 40.0398C83.1415 42.8103 84.1743 55.4844 78.6055 58.2264C78.6055 58.2264 75.028 75.7008 86.3555 76.2083C97.683 76.714 96.936 63.8601 96.936 63.8601C96.936 63.8601 92.9516 58.6698 95.1201 50.538Z" fill="#FCC9A7"/>
<path fill-rule="evenodd" clip-rule="evenodd" d="M85.4239 51.9056C85.6663 54.5052 86.5145 58.1892 87.9542 60.4113C89.6742 63.0679 92.9967 62.8632 95.9628 62.1581C94.9464 60.0054 93.684 55.9225 95.12 50.5381C91.5154 49.8651 88.9164 47.9884 86.9359 44.6783C86.2143 43.4693 85.2358 42.4206 84.1904 41.3736C85.1436 44.7567 85.1146 48.5866 85.4239 51.9056Z" fill="#E5AC87"/>
<path fill-rule="evenodd" clip-rule="evenodd" d="M94.4072 14.1156C94.4072 10.2948 96.5232 6.72732 104.347 12.9984C112.173 19.2714 113.09 27.8225 112.147 33.9653C111.205 40.108 103.085 53.7503 96.9461 54.199C90.8058 54.6459 86.0191 48.9088 83.6714 42.5272C81.3256 36.1457 80.0198 30.6064 79.5731 26.6447C79.1263 22.6829 78.1171 11.0185 87.5076 12.9984L94.4072 14.1156Z" fill="#FCC9A7"/>
<path fill-rule="evenodd" clip-rule="evenodd" d="M87.5075 34.5926C87.5075 34.5926 89.0968 45.6224 96.0863 45.6224C99.2115 48.5032 105.329 48.8672 105.817 46.9255C105.565 47.9381 100.926 55.4034 94.8584 55.0604C91.8617 54.891 84.8759 46.1378 84.8759 46.1378C84.8759 46.1378 84.037 44.2456 85.2199 35.7085C84.5162 33.6212 87.5075 34.5926 87.5075 34.5926Z" fill="#373A41"/>
<path fill-rule="evenodd" clip-rule="evenodd" d="M93.0225 46.524C93.0225 46.524 95.5231 46.6714 96.6475 43.9589C97.7718 41.2464 106.757 42.1197 106.757 44.8323C106.757 47.5448 104.758 48.5717 104.758 48.5717V47.9097C104.758 47.9097 104.758 48.4827 104.758 46.524C104.758 44.5654 101.485 43.6249 97.5097 46.1483C93.5341 48.6717 94.1338 47.3909 94.1338 47.3909L93.0225 46.524Z" fill="#373A41"/>
<path fill-rule="evenodd" clip-rule="evenodd" d="M108.504 33.9652C115.34 27.5595 112.943 20.165 113.428 20.5923C113.437 20.6012 112.807 17.189 106.177 11.5065C94.334 1.35456 91.2649 15.0249 93.8802 15.5288C96.0306 15.2243 99.0945 15.3887 101.305 16.4196C113.428 20.8653 106.784 31.6648 108.504 33.9652Z" fill="#282A2F"/>
<path fill-rule="evenodd" clip-rule="evenodd" d="M87.3347 35.3927C87.4396 35.0117 87.5066 34.5915 87.5084 34.1267C87.521 30.1098 91.0623 16.4102 93.8802 15.5288C93.8802 15.5288 93.2406 4.06623 89.3802 4.7564C81.1607 6.22594 79.5829 10.7979 78.0691 15.089C76.5553 19.3801 77.8748 26.5678 77.6976 27.5595C77.5239 28.5406 83.9888 34.1713 83.5927 36.5857C84.5458 35.8539 85.7902 35.3945 87.3347 35.3927Z" fill="#373A41"/>
<path fill-rule="evenodd" clip-rule="evenodd" d="M85.2185 35.9979C85.2185 35.9979 85.483 24.3887 78.7171 28.4038C78.7171 28.4038 76.8718 31.1014 78.1456 34.1818C79.4194 37.2621 82.1448 40.0665 83.6163 40.371C83.6163 40.371 83.9447 38.6367 85.2185 35.9979Z" fill="#FCC9A7"/>
<path fill-rule="evenodd" clip-rule="evenodd" d="M80.7852 56.2491L71.525 60.8661L70.854 127.48C70.854 127.48 80.4127 133.057 96.9472 126.747C96.9472 126.747 93.7911 84.6561 100.174 66.0529C100.174 66.0529 97.488 63.4996 95.2381 60.3141L87.9565 66.2612L80.7852 56.2491Z" fill="#699FFF"/>
<path fill-rule="evenodd" clip-rule="evenodd" d="M76.8901 70.4893L87.5079 66.9909L81.8908 51.2583L79.3029 55.0719L76.8901 70.4893Z" fill="#C2D8FF"/>
<path fill-rule="evenodd" clip-rule="evenodd" d="M94.7103 58.1315L87.957 66.9909L93.9945 71.6926L95.9631 63.1194L94.7103 58.1315Z" fill="#C2D8FF"/>
<path fill-rule="evenodd" clip-rule="evenodd" d="M97.4523 63.1376C97.4523 63.1376 111.737 70.3934 113.428 71.7929C113.428 71.7929 103.177 88.0422 105.235 105.818C105.235 105.818 98.5049 123.409 99.2121 124.821C99.9175 126.235 108.413 138.339 108.413 138.339L106.177 148.825C106.177 148.825 87.2461 127.387 85.7576 120.318C84.2673 113.25 93.1984 75.7511 97.4523 63.1376Z" fill="white"/>
<path fill-rule="evenodd" clip-rule="evenodd" d="M79.3031 55.0719C78.3862 54.5485 79.9386 60.8664 80.1113 70.4893C80.4492 89.3201 79.997 119.392 76.8897 125.71C72.1962 135.258 60.7946 151.984 60.7946 151.984C60.7946 151.984 52.0752 142.3 51.6284 136.358C51.6284 136.358 63.2525 121.391 62.5833 119.851C61.9123 118.31 54.3124 104.224 54.7592 92.1203C54.7592 92.1203 63.7011 73.9408 60.7946 56.6195C60.7946 56.6195 76.2646 55.1876 79.3031 55.0719Z" fill="white"/>
<path fill-rule="evenodd" clip-rule="evenodd" d="M60.7946 56.6195C60.7946 56.6195 20.7767 95.4357 21.0009 104.175C21.2234 112.915 54.7085 129.348 63.9235 130.963L68.3963 121.17C68.3963 121.17 42.1385 107.244 41.7587 104.105C41.4946 101.913 54.7592 92.1203 54.7592 92.1203C54.7592 92.1203 66.3833 73.72 60.7946 56.6195Z" fill="white"/>
<path fill-rule="evenodd" clip-rule="evenodd" d="M113.428 71.7934C113.428 71.7934 119.791 94.4225 124.209 112.547C124.544 113.914 125.81 114.853 127.237 114.789C133.556 114.514 156.866 110.426 156.866 110.426L160.065 120.233C160.065 120.233 120.945 130.543 118.076 128.937C113.656 126.46 105.235 116.842 104.938 106.602C104.938 106.602 101.006 86.2408 113.428 71.7934Z" fill="white"/>
<path fill-rule="evenodd" clip-rule="evenodd" d="M182.558 115.301C182.558 115.301 184.475 115.587 184.67 114.188C184.864 112.799 183.791 111.837 183.525 111.962C183.258 112.089 181.433 112.892 181.695 113.445C181.956 113.997 182.006 115.087 182.558 115.301Z" fill="#3D3E43"/>
<path fill-rule="evenodd" clip-rule="evenodd" d="M181.404 111.821C181.458 111.848 182.778 112.368 183.842 111.492C184.894 110.623 183.379 108.082 182.283 108.445C181.179 108.809 180.465 110.03 180.637 110.685C180.809 111.342 181.404 111.821 181.404 111.821Z" fill="#3D3E43"/>
<path fill-rule="evenodd" clip-rule="evenodd" d="M178.082 114.853C178.082 114.853 174.707 114.648 175.106 110.581C175.106 110.581 156.454 97.6455 153.788 97.4924C151.099 97.3392 154.949 94.4352 154.949 94.4352L177.248 109.454C177.248 109.454 180.623 113.165 178.082 114.853Z" fill="#B2B2B2"/>
<path fill-rule="evenodd" clip-rule="evenodd" d="M179.782 109.116C179.782 109.116 178.364 111.466 178.362 112.205C178.36 112.947 179.334 112.534 180.375 114.537C181.131 115.99 180.439 117.379 182.083 118.975C182.719 119.591 183.88 120.73 185.407 120.686C185.407 120.686 184.485 119.24 184.548 117.623L184.277 118.241C184.277 118.241 182.609 116.507 182.101 113.195C181.629 110.122 180.498 109.612 179.782 109.116Z" fill="#E3EDF2"/>
<mask id="mask0_4_40" style="mask-type:luminance" maskUnits="userSpaceOnUse" x="184" y="114" width="6" height="8">
<path fill-rule="evenodd" clip-rule="evenodd" d="M184.238 114.588H189.217V121.581H184.238V114.588Z" fill="white"/>
</mask>
<g mask="url(#mask0_4_40)">
<path fill-rule="evenodd" clip-rule="evenodd" d="M185.239 120.613C185.239 120.613 183.505 118.54 184.602 116.55C185.686 114.584 187.306 113.893 188.464 115.419C189.623 116.95 189.506 119.874 187.683 121.225C186.241 122.294 185.239 120.613 185.239 120.613Z" fill="#A29798"/>
</g>
<path fill-rule="evenodd" clip-rule="evenodd" d="M178.362 112.205C178.362 112.205 180.636 113.137 180.867 114.99C181.1 116.86 181.046 118.916 185.239 120.613C185.239 120.613 183.68 118.94 185.23 117.205C186.761 115.494 189.315 117.123 188.492 120.375C187.653 123.688 180.335 123.216 177.695 116.838C177.695 116.838 177.324 113.911 178.362 112.205Z" fill="#B2B2B2"/>
<path fill-rule="evenodd" clip-rule="evenodd" d="M154.838 87.4402C154.838 87.4402 153.086 96.2682 148.779 100.12C144.325 104.104 137.604 104.21 134.739 100.561C131.89 96.9342 131.491 96.733 127.117 96.4784C127.117 96.4784 126.775 96.5247 126.998 94.9773C127.219 93.4425 125.446 88.7044 118.317 89.9686C118.317 89.9686 117.103 92.5771 116.282 92.1676C115.462 91.7563 115.061 88.6581 113.976 88.5121C112.887 88.3643 99.9878 92.3759 93.0806 85.998C86.1915 79.6414 89.731 68.5111 97.0614 59.2754C97.0614 59.2754 135.855 74.2801 154.838 87.4402Z" fill="#B2B2B2"/>
<path fill-rule="evenodd" clip-rule="evenodd" d="M143.272 80.7432C142.601 80.2607 141.93 79.7799 141.255 79.2992C143.791 80.6613 146.252 82.0394 148.565 83.4229C148.319 83.5262 148.072 83.6313 147.826 83.7381C146.283 82.7802 144.747 81.8044 143.272 80.7432Z" fill="#955D58"/>
<path fill-rule="evenodd" clip-rule="evenodd" d="M153.486 92.1585C153.486 92.1585 150.131 99.5906 140.124 98.1786C140.124 98.1786 138.346 98.1252 135.57 95.3885C132.801 92.6589 131.918 92.0731 129.636 92.5342C129.636 92.5342 128.954 92.1194 128.614 89.9809C128.278 87.8603 120.124 84.5609 117.796 88.4852C117.796 88.4852 117.766 88.6117 117.057 86.9682C116.355 85.3319 117.201 85.761 106.5 85.5598C95.3857 85.3532 87.245 71.6447 97.0605 59.2752C106.049 47.9473 120.088 49.7937 126.371 57.5694C132.734 65.4448 131.987 64.9908 134.557 64.6827C134.557 64.6827 137.042 73.7137 144.624 70.2826C144.624 70.2826 145.188 69.7306 145.404 70.8132C145.619 71.9029 145.27 73.7226 151.365 77.4458C157.424 81.1493 155.577 88.6028 153.486 92.1585Z" fill="url(#paint0_linear_4_40)"/>
<path fill-rule="evenodd" clip-rule="evenodd" d="M157.701 97.7942C157.701 97.7942 154.981 96.6706 152.955 97.8458C150.902 99.0388 150.267 99.6371 148.974 98.9124C148.974 98.9124 150.92 95.3317 152.002 93.95C153.069 92.5825 159.367 96.3395 157.701 97.7942Z" fill="#B2B2B2"/>
<path fill-rule="evenodd" clip-rule="evenodd" d="M134.642 84.2947L138.867 78.4669C138.867 78.4669 174.761 104.972 179.683 109.477L178.52 112.315C178.52 112.315 158.384 98.0655 134.642 84.2947Z" fill="#DDE6EC"/>
<path fill-rule="evenodd" clip-rule="evenodd" d="M179.573 118.935L180.351 117.234C180.351 117.234 181.08 117.028 181.042 117.957L180.358 119.69L179.573 118.935Z" fill="#3D3E43"/>
<path fill-rule="evenodd" clip-rule="evenodd" d="M179.765 118.912C179.765 118.912 179.145 118.291 178.501 119.562C177.854 120.842 177.718 120.844 178.803 121.667C179.888 122.489 180.156 122.329 180.464 121.583C180.769 120.839 181.022 119.425 179.765 118.912Z" fill="#3D3E43"/>
<path fill-rule="evenodd" clip-rule="evenodd" d="M178.471 117.764L179.601 115.992C179.601 115.992 179.61 115.022 178.735 115.048L177.443 116.784C177.443 116.784 177.543 117.365 178.471 117.764Z" fill="#3D3E43"/>
<path fill-rule="evenodd" clip-rule="evenodd" d="M178.488 117.43C178.488 117.43 178.924 118.219 178.648 118.616C178.371 119.015 177.93 120.345 176.644 119.422C175.359 118.5 174.725 117.939 175.28 117.132C175.832 116.329 176.34 115.859 177.018 116.349C177.696 116.837 178.488 117.43 178.488 117.43Z" fill="#3D3E43"/>
<path fill-rule="evenodd" clip-rule="evenodd" d="M129.401 84.3043L130.244 83.5903C130.244 83.5903 131.888 84.8367 131.15 85.613C130.407 86.3947 127.989 87.5752 125.268 84.81C122.556 82.0519 121.743 82.0287 120.841 82.9974C120.841 82.9974 120.472 83.7772 121.787 83.7666C121.787 83.7666 120.971 84.8509 120.792 84.7583C120.611 84.6693 119.499 83.4407 120.855 82.392C122.199 81.3557 123.794 82.1694 124.726 82.919C125.657 83.6668 126.469 85.1625 128.079 85.4492C129.678 85.7323 130.579 85.8 130.752 84.9168C130.774 84.8011 129.401 84.3043 129.401 84.3043Z" fill="#3D3E43"/>
<path fill-rule="evenodd" clip-rule="evenodd" d="M136.75 73.3122L136.455 74.3378C136.455 74.3378 138.658 75.0393 138.98 74.0155C139.248 73.168 139.072 71.4693 136.397 70.6805C135.835 70.5167 135.243 70.5025 134.67 70.5648C132.254 70.8194 131.521 69.2187 132.107 68.5083C132.107 68.5083 132.695 68.1041 133.107 68.7629C133.107 68.7629 133.784 68.0471 133.648 67.9866C133.511 67.926 132.104 67.7319 131.55 68.697C130.939 69.7636 131.993 71.0491 133.069 71.3393C134.162 71.6331 136.177 70.9387 137.186 71.8593C138.268 72.8457 138.828 73.4796 138.078 74.0547C137.976 74.133 136.75 73.3122 136.75 73.3122Z" fill="#3D3E43"/>
<path fill-rule="evenodd" clip-rule="evenodd" d="M119.194 73.048L118.999 73.3631L128.678 77.9445L128.863 77.6276L119.194 73.048Z" fill="#EECEB0"/>
<path fill-rule="evenodd" clip-rule="evenodd" d="M119.912 71.6926L119.722 72.006L129.344 76.4752L129.521 76.1582L119.912 71.6926Z" fill="#EECEB0"/>
<path fill-rule="evenodd" clip-rule="evenodd" d="M120.497 70.8093L120.327 71.1298L130.378 75.2767L130.537 74.9562L120.497 70.8093Z" fill="#EECEB0"/>
<path fill-rule="evenodd" clip-rule="evenodd" d="M121.381 69.7938L121.211 70.1125L131.24 74.2737L131.398 73.9532L121.381 69.7938Z" fill="#EECEB0"/>
<path fill-rule="evenodd" clip-rule="evenodd" d="M119.17 74.0905L117.792 73.259L118.345 72.1746L119.915 72.983L119.17 74.0905Z" fill="#3D3E43"/>
<path fill-rule="evenodd" clip-rule="evenodd" d="M120.043 72.7168L118.667 71.8995L119.143 70.9291L120.705 71.7357L120.043 72.7168Z" fill="#3D3E43"/>
<path fill-rule="evenodd" clip-rule="evenodd" d="M120.87 71.5683L119.496 70.7582L119.922 69.8626L121.478 70.6674L120.87 71.5683Z" fill="#3D3E43"/>
<path fill-rule="evenodd" clip-rule="evenodd" d="M121.543 70.5701L120.179 69.7564L120.646 68.8003L122.194 69.6033L121.543 70.5701Z" fill="#3D3E43"/>
<path fill-rule="evenodd" clip-rule="evenodd" d="M97.0608 59.2755C97.3249 58.9426 97.5944 58.6238 97.8657 58.314C99.8552 59.4856 108.142 63.9726 110.993 64.5211C114.749 65.2457 117.607 65.4398 121.246 68.4953L117.249 74.3693C117.249 74.3693 111.251 72.197 109.343 69.0953C107.744 66.501 99.2294 62.4378 95.7622 61.097C96.1565 60.4863 96.5815 59.8791 97.0608 59.2755Z" fill="#3D3E43"/>
<path fill-rule="evenodd" clip-rule="evenodd" d="M128.158 80.5354L128.234 77.5423L131.764 73.0499C131.764 73.0499 132.694 75.0424 132.643 75.2436C132.594 75.443 129.174 80.555 128.963 80.6476C128.753 80.7402 128.151 80.8684 128.158 80.5354Z" fill="#E8A751"/>
<path fill-rule="evenodd" clip-rule="evenodd" d="M128.234 77.5428L131.765 73.0505C131.765 73.0505 132.693 75.0429 132.644 75.2423C132.593 75.4435 129.175 80.5538 128.963 80.6481L128.234 77.5428Z" fill="#FFC27E"/>
<path fill-rule="evenodd" clip-rule="evenodd" d="M129.71 78.6731L178.397 111.353L180.544 113.731L178.601 111.053L129.949 78.3864L129.71 78.6731Z" fill="#EECEB0"/>
<path fill-rule="evenodd" clip-rule="evenodd" d="M130.427 77.5246L178.761 110.844L180.686 113.088L178.969 110.547L130.67 77.2433L130.427 77.5246Z" fill="#EECEB0"/>
<path fill-rule="evenodd" clip-rule="evenodd" d="M131.123 76.4091L179.041 110.375L180.89 112.576L179.253 110.083L131.367 76.1349L131.123 76.4091Z" fill="#EECEB0"/>
<path fill-rule="evenodd" clip-rule="evenodd" d="M131.938 75.4649L179.256 109.762L181.171 112.139L179.471 109.472L132.186 75.1942L131.938 75.4649Z" fill="#EECEB0"/>
<path fill-rule="evenodd" clip-rule="evenodd" d="M177.877 104.463C177.029 103.311 175.626 102.463 174.927 102.892C174.401 103.214 173.493 106.546 173.349 106.761C173.486 106.248 175.291 102.438 173.907 101.252C172.641 100.168 171.203 99.2526 169.648 105.591C169.675 105.483 172.417 100.218 170.572 99.0461C170.572 99.0461 169.227 98.1166 168.63 98.7683C168.085 99.3612 167.36 101.363 166.204 104.073C166.204 104.073 169.116 98.4033 167.534 96.9949C165.41 95.1039 164.624 96.6637 164.624 96.6637C164.624 96.6637 164.021 100.474 162.752 102.906C160.826 106.597 160.802 108.609 160.093 109.437C159.301 110.362 158.478 111.341 157.364 111.952L159.476 118.426C161.918 118.267 168.349 116.754 173.072 114.873C174.844 114.168 178.726 105.615 177.877 104.463Z" fill="#FCC9A7"/>
<path fill-rule="evenodd" clip-rule="evenodd" d="M166.619 103.552C167.894 102.43 167.465 101.056 167.465 101.056C167.465 101.056 165.868 103.424 165.83 104.4C166.096 104.118 166.326 103.81 166.619 103.552Z" fill="#E5AC87"/>
<path fill-rule="evenodd" clip-rule="evenodd" d="M169.752 105.188C170.982 103.508 171.016 101.656 171.016 101.656C171.016 101.656 169.036 105.34 168.998 106.316C169.262 106.036 169.522 105.502 169.752 105.188Z" fill="#E5AC87"/>
<path fill-rule="evenodd" clip-rule="evenodd" d="M172.937 107.692C174.167 106.013 174.202 104.159 174.202 104.159C174.202 104.159 172.221 107.845 172.183 108.819C172.447 108.539 172.708 108.005 172.937 107.692Z" fill="#E5AC87"/>
<path fill-rule="evenodd" clip-rule="evenodd" d="M151.732 50.7614C151.732 50.7614 80.5111 131.974 80.0445 132.491C79.5779 133.007 80.0951 135.025 81.0628 134.501C82.0322 133.979 154.03 51.641 154.03 51.641C154.03 51.641 155.532 48.3381 151.732 50.7614Z" fill="#8E4E37"/>
<path fill-rule="evenodd" clip-rule="evenodd" d="M90.3686 118.225C89.363 117.344 83.1956 117.932 81.0342 117.711C78.8747 117.492 70.7503 122.764 69.468 123.067C69.1479 123.143 68.4714 123.019 67.6395 122.789C67.5961 123.202 64.6118 129.5 64.6118 129.5C67.6883 130.575 71.7433 131.902 73.2842 132.66C74.9608 133.487 79.9726 130.99 80.7557 130.385C81.5389 129.779 82.3202 130.55 84.6117 132.365C86.9033 134.181 87.7985 131.98 87.7985 131.98C92.3997 132.274 90.0883 128.9 90.0883 128.9L90.705 129.89C93.7218 129.614 92.4739 126.368 92.4739 126.368C96.4981 126.808 91.3742 119.105 90.3686 118.225Z" fill="#FCC9A7"/>
<path fill-rule="evenodd" clip-rule="evenodd" d="M88.7296 120.86C88.3932 120.694 81.8911 120.76 81.8911 120.76C81.8911 120.76 83.3272 121.44 88.2629 121.875C88.6807 121.91 91.5529 125.318 92.5729 126.695C92.5205 126.506 92.4734 126.369 92.4734 126.369C92.6579 126.388 92.8044 126.374 92.9527 126.362C92.9527 126.362 89.0642 121.025 88.7296 120.86Z" fill="#E5AC87"/>
<path fill-rule="evenodd" clip-rule="evenodd" d="M86.8477 124.749C85.8421 124.625 80.9985 124.176 80.9985 124.176C81.4453 125.047 85.1005 124.589 87.1461 126.359C88.2873 127.349 90.3293 129.299 90.1846 129.053L90.7037 129.89C90.9931 129.863 91.2101 129.788 91.4271 129.714C90.8737 128.367 87.7719 124.863 86.8477 124.749Z" fill="#E5AC87"/>
<path fill-rule="evenodd" clip-rule="evenodd" d="M88.773 131.976C88.3335 130.794 86.4398 128.431 85.7724 127.95C84.9151 127.334 80.1403 127.211 80.1403 127.211C79.6936 128.093 84.5426 128.237 85.2877 128.897C85.8032 129.353 86.8866 131.109 87.7656 132.049C87.7818 132.015 87.7981 131.979 87.7981 131.979C88.1707 132.004 88.4854 131.997 88.773 131.976Z" fill="#E5AC87"/>
<path d="M87.1548 67.439L87.689 67.4822L83.4141 119.711L82.8799 119.668L87.1548 67.439Z" fill="#6F8FBA" fill-opacity="0.3"/>
</g>
<g filter="url(#filter1_d_4_40)">
<path fill-rule="evenodd" clip-rule="evenodd" d="M2 192.805L2 1067H973V107C853.834 157.103 504.37 193.383 91.818 193.383C61.5162 193.383 31.5548 193.188 2 192.805Z" fill="#E5EAFF"/>
</g>
<path d="M58.1962 235.777C58.1962 233.892 57.3197 232.182 55.7916 231.084C54.2662 229.989 52.3723 229.708 50.5952 230.312L41.5318 233.394C39.1955 234.189 37.6258 236.385 37.6258 238.859V259.408C36.7901 258.939 35.8282 258.671 34.8041 258.671C31.6038 258.671 29 261.282 29 264.492C29 267.702 31.6038 270.313 34.8041 270.313C38.0045 270.313 40.6083 267.702 40.6083 264.492V242.829L55.2138 237.862V253.426C54.3777 252.958 53.4158 252.689 52.3921 252.689C49.1914 252.689 46.5879 255.301 46.5879 258.51C46.5879 261.721 49.1914 264.332 52.3921 264.332C55.5924 264.332 58.1958 261.721 58.1958 258.51V235.777H58.1962Z" fill="#314DCB"/>
<path d="M2.49123 678.166H4.19138V679.85C4.19138 680.675 4.85894 681.344 5.68261 681.344C6.50628 681.344 7.17384 680.675 7.17384 679.85V678.166H8.87399C9.69767 678.166 10.3652 677.497 10.3652 676.672C10.3652 675.847 9.69767 675.178 8.87399 675.178H7.17384V673.494C7.17384 672.669 6.50628 672 5.68261 672C4.85894 672 4.19138 672.669 4.19138 673.494V675.178H2.49123C1.66756 675.178 1 675.847 1 676.672C1 677.497 1.66756 678.166 2.49123 678.166Z" fill="#314DCB"/>
<path d="M394.491 216.166H396.191V217.85C396.191 218.675 396.859 219.344 397.683 219.344C398.506 219.344 399.174 218.675 399.174 217.85V216.166H400.874C401.698 216.166 402.365 215.497 402.365 214.672C402.365 213.847 401.698 213.178 400.874 213.178H399.174V211.494C399.174 210.669 398.506 210 397.683 210C396.859 210 396.191 210.669 396.191 211.494V213.178H394.491C393.668 213.178 393 213.847 393 214.672C393 215.497 393.668 216.166 394.491 216.166Z" fill="#314DCB"/>
<defs>
<filter id="filter0_d_4_40" x="19" y="0" width="172.217" height="297.764" filterUnits="userSpaceOnUse" color-interpolation-filters="sRGB">
<feFlood flood-opacity="0" result="BackgroundImageFix"/>
<feColorMatrix in="SourceAlpha" type="matrix" values="0 0 0 0 0 0 0 0 0 0 0 0 0 0 0 0 0 0 127 0" result="hardAlpha"/>
<feOffset/>
<feGaussianBlur stdDeviation="1"/>
<feComposite in2="hardAlpha" operator="out"/>
<feColorMatrix type="matrix" values="0 0 0 0 0 0 0 0 0 0 0 0 0 0 0 0 0 0 1 0"/>
<feBlend mode="normal" in2="BackgroundImageFix" result="effect1_dropShadow_4_40"/>
<feBlend mode="normal" in="SourceGraphic" in2="effect1_dropShadow_4_40" result="shape"/>
</filter>
<filter id="filter1_d_4_40" x="0" y="105" width="975" height="964" filterUnits="userSpaceOnUse" color-interpolation-filters="sRGB">
<feFlood flood-opacity="0" result="BackgroundImageFix"/>
<feColorMatrix in="SourceAlpha" type="matrix" values="0 0 0 0 0 0 0 0 0 0 0 0 0 0 0 0 0 0 127 0" result="hardAlpha"/>
<feOffset/>
<feGaussianBlur stdDeviation="1"/>
<feComposite in2="hardAlpha" operator="out"/>
<feColorMatrix type="matrix" values="0 0 0 0 0 0 0 0 0 0 0 0 0 0 0 0 0 0 1 0"/>
<feBlend mode="normal" in2="BackgroundImageFix" result="effect1_dropShadow_4_40"/>
<feBlend mode="normal" in="SourceGraphic" in2="effect1_dropShadow_4_40" result="shape"/>
</filter>
<linearGradient id="paint0_linear_4_40" x1="157.705" y1="100.065" x2="169.306" y2="53.1574" gradientUnits="userSpaceOnUse">
<stop stop-color="#EFFDFF"/>
<stop offset="1" stop-color="#CED4DD"/>
</linearGradient>
</defs>
</svg>
