<svg width="177" height="305" viewBox="0 0 177 305" fill="none" xmlns="http://www.w3.org/2000/svg">
<g clip-path="url(#clip0_0_137)">
<rect y="250" width="176.22" height="54.9" rx="27.45" fill="#314DCB"/>
</g>
<g filter="url(#filter0_d_0_137)">
<path fill-rule="evenodd" clip-rule="evenodd" d="M38.8267 63.0087L45.06 78.6862L51.2476 74.964L46.0501 62.5119L38.8267 63.0087Z" fill="#FCC9A7"/>
<path fill-rule="evenodd" clip-rule="evenodd" d="M75.0876 231.754L73.6468 243.225L63.4681 241.72L64.9632 230.445L75.0876 231.754Z" fill="#FCC9A7"/>
<path fill-rule="evenodd" clip-rule="evenodd" d="M57.2575 247.21C58.673 245.663 61.4457 242.459 62.4199 240.104C64.428 241.098 66.6002 241.704 69.0056 241.721C71.3448 241.737 73.2363 241.247 75.1547 240.536C75.1578 240.553 77.3646 250.62 76.0185 252.25C74.6723 253.882 65.5378 253.5 63.6147 254.652C62.7398 255.176 57.0983 257.737 52.7493 257.725C48.0788 257.709 45.3991 255.952 45.0019 254.493C44.6078 253.037 50.7821 250.224 55.3533 248.506C56.0847 248.23 56.731 247.785 57.2575 247.21" fill="#131416"/>
<path fill-rule="evenodd" clip-rule="evenodd" d="M122.655 251.299C122.655 252.193 120.217 258.561 114.518 258.561C110.62 258.561 106.394 252.975 106.394 251.97C106.394 250.964 106.793 242.807 106.394 241.914C106.18 241.435 109.576 239.095 112.656 239.23C115.324 239.347 117.723 241.914 117.723 241.914C117.723 241.914 122.655 249.009 122.655 251.299Z" fill="#131416"/>
<path fill-rule="evenodd" clip-rule="evenodd" d="M116.172 232.914L117.296 244.443C117.296 244.443 113.944 246.84 111.401 246.457C108.858 246.074 107.239 242.929 107.239 242.929L106.169 231.599L116.172 232.914Z" fill="#FCC9A7"/>
<path fill-rule="evenodd" clip-rule="evenodd" d="M71.7424 128.94C68.5974 143.099 64.3303 172.806 64.3303 172.806L63.4708 234.059L74.9514 235.566L82.3025 183.836L91.5219 153.149L92.5479 132.312C92.5479 132.312 89.1243 127.784 71.7424 128.94Z" fill="#7688E0"/>
<path fill-rule="evenodd" clip-rule="evenodd" d="M115.031 129.805L117.296 188.264V236.668L106.169 237.867L96.8734 188.264L86.2618 129.805H115.031Z" fill="#7688E0"/>
<path fill-rule="evenodd" clip-rule="evenodd" d="M118.896 232.811C117.367 231.947 108.322 234.782 105.679 232.014C102.106 230.448 102.407 236.476 104.043 238.663C105.679 240.85 118.157 240.124 118.827 238.663C119.498 237.202 120.424 233.675 118.896 232.811Z" fill="white"/>
<path fill-rule="evenodd" clip-rule="evenodd" d="M77.3149 230.97C75.7863 230.105 66.7417 232.941 64.0984 230.172C60.5253 228.606 60.826 234.635 62.4622 236.822C64.0984 239.008 76.5762 238.283 77.2465 236.822C77.9168 235.361 78.8436 231.834 77.3149 230.97Z" fill="white"/>
<path fill-rule="evenodd" clip-rule="evenodd" d="M65.5855 99.1981L86.8982 48.8791C86.8982 48.8791 75.3625 49.3494 72.224 52.8818C69.0854 56.4142 53.1145 93.7325 53.1145 93.7325L65.5855 99.1981Z" fill="url(#paint0_linear_0_137)"/>
<path fill-rule="evenodd" clip-rule="evenodd" d="M95.3516 46.8076L115.495 54.0261C117.908 54.8904 119.415 58.0373 118.962 61.2681C118.962 61.2681 115.75 107.415 121.683 123.555C125.292 133.372 111.356 139.701 111.356 139.701C111.356 139.701 76.9564 141.25 69.211 135.605C61.4657 129.959 66.1073 112.235 66.3471 103.634C66.7671 88.5646 71.1904 57.9282 71.1904 57.9282C70.9476 54.6101 72.7072 51.6143 75.2132 51.0823L95.3516 46.8076Z" fill="url(#paint1_linear_0_137)"/>
<path fill-rule="evenodd" clip-rule="evenodd" d="M71.1588 80.1639C71.1588 80.1639 80.0147 66.7329 91.9145 74.3799C91.9145 74.3799 94.4204 76.0965 96.3002 81.2463C98.18 86.396 107.021 87.1856 110.309 87.4976C113.597 87.8096 119.548 89.8394 125.498 96.3938C131.45 102.947 124.558 113.87 124.558 113.87C124.558 113.87 112.03 137.123 96.8408 129.32C84.9959 123.237 87.0533 116.394 84.0784 109.68C82.7174 106.604 80.2281 104.166 77.1688 102.748C75.3376 101.899 72.8891 100.781 70.7793 99.8715C66.6772 98.1015 64.8946 91.8667 66.3028 88.5902C67.7136 85.3136 71.1588 80.1639 71.1588 80.1639" fill="#004084"/>
<path fill-rule="evenodd" clip-rule="evenodd" d="M100.929 46.2008C100.929 46.2008 104.571 45.9729 104.806 49.6226C105.044 53.2722 101.772 58.5175 93.4402 57.3778C85.1057 56.2368 84.1307 46.4874 88.2532 45.899C92.377 45.3107 100.929 46.2008 100.929 46.2008" fill="#FF9149"/>
<path fill-rule="evenodd" clip-rule="evenodd" d="M94.5354 54.373V54.373C98.3652 54.7334 101.763 51.9305 102.124 48.1128L103.182 36.9409L89.31 35.6382L88.2532 46.8113C87.8928 50.6278 90.7055 54.0139 94.5354 54.373" fill="#FCC9A7"/>
<path fill-rule="evenodd" clip-rule="evenodd" d="M102.953 40.8832C102.953 40.8832 99.1933 47.7763 92.377 46.2686C86.4079 44.9493 89.3215 37.9327 89.3215 37.9327L102.953 40.8832Z" fill="#F4BE9A"/>
<path fill-rule="evenodd" clip-rule="evenodd" d="M94.12 42.9774L95.3544 43.0614C101.532 43.4817 106.881 38.8324 107.303 32.6766L107.785 25.6638C108.206 19.5067 103.541 14.1761 97.3633 13.7559L96.1288 13.6718C89.9515 13.2516 84.6022 17.9009 84.1805 24.0567L83.6987 31.0695C83.277 37.2253 87.9426 42.5572 94.12 42.9774" fill="#FCC9A7"/>
<path fill-rule="evenodd" clip-rule="evenodd" d="M94.12 42.9774L95.3544 43.0614C101.532 43.4817 106.881 38.8324 107.303 32.6766L107.785 25.6638C108.206 19.5067 103.541 14.1761 97.3633 13.7559L96.1288 13.6718C89.9515 13.2516 84.6022 17.9009 84.1805 24.0567L83.6987 31.0695C83.277 37.2253 87.9426 42.5572 94.12 42.9774" fill="#FCC9A7"/>
<path fill-rule="evenodd" clip-rule="evenodd" d="M107.263 33.5579C106.45 33.3287 102.886 30.9032 102.187 29.6019C101.223 27.8091 100.617 24.7329 102.743 22.0361C103.1 21.5841 103.276 21.0137 103.2 20.442C103.063 19.4081 102.413 18.1106 99.9269 18.5181C95.9433 19.1713 86.7479 21.919 85.3843 15.4088C84.0517 9.05012 102.567 10.5844 107.671 14.819C112.776 19.0536 107.263 33.5579 107.263 33.5579Z" fill="#1C2226"/>
<ellipse cx="3.68423" cy="6.45352" rx="3.68423" ry="6.45352" transform="matrix(-0.48481 0.87462 0.87462 0.48481 102.821 6.99261)" fill="#1C2226"/>
<path fill-rule="evenodd" clip-rule="evenodd" d="M101.627 36.1035C100.688 38.4224 98.9211 39.854 96.6243 38.8153C94.3261 37.7778 92.9905 33.8799 89.0116 33.4921C89.0116 33.4921 87.0777 33.2137 86.0782 35.1474C85.08 37.0824 83.5998 32.7255 83.7801 30.1065C83.9603 27.4862 79.2145 41.9441 91.2573 44.2452C91.2573 44.2452 97.1956 45.8395 102.991 41.0694C103.627 40.5456 106.285 39.8445 107.838 32.9081C108.467 30.1006 103.208 29.3345 103.208 30.1065C103.208 32.9081 102.254 34.5581 101.627 36.1035Z" fill="#1C2226"/>
<path fill-rule="evenodd" clip-rule="evenodd" d="M105.457 35.5237C105.457 35.5237 109.099 35.547 110.055 31.1324C111.012 26.7178 107.707 26.0893 106.285 29.7903C104.862 33.4912 105.457 35.5237 105.457 35.5237Z" fill="#FCC9A7"/>
<path fill-rule="evenodd" clip-rule="evenodd" d="M72.5044 77.9976C72.5044 77.9976 81.3621 64.5886 93.2655 72.2231C93.2655 72.2231 95.772 73.9369 97.6522 79.0783C99.531 84.2197 108.373 85.0092 111.663 85.3194C114.952 85.6309 120.903 87.6574 126.855 94.2011C132.808 100.745 125.916 111.651 125.916 111.651C125.916 111.651 113.385 134.864 98.1928 127.075C86.3456 121 88.4021 114.169 85.4279 107.465C84.0666 104.395 81.5768 101.961 78.5156 100.545C76.684 99.6985 74.2351 98.5809 72.1261 97.6732C68.0232 95.9073 66.2402 89.6827 67.6487 86.4102C69.0585 83.139 72.5044 77.9976 72.5044 77.9976" fill="#4F5FA8"/>
<path fill-rule="evenodd" clip-rule="evenodd" d="M83.6771 90.1718C83.6771 92.9917 85.9739 95.2776 88.8089 95.2776C91.6425 95.2776 93.9407 92.9917 93.9407 90.1718C93.9407 87.3532 91.6425 85.0673 88.8089 85.0673C85.9739 85.0673 83.6771 87.3532 83.6771 90.1718" fill="#0B1A5C"/>
<path fill-rule="evenodd" clip-rule="evenodd" d="M111.629 98.7677L100.173 112.441L102.556 114.538L114.104 100.409L111.629 98.7677Z" fill="#004084"/>
<path fill-rule="evenodd" clip-rule="evenodd" d="M88.8083 86.3714L40.163 45.201L36.2698 50.0119L85.3292 91.7531L88.8083 86.3714Z" fill="#004084"/>
<mask id="mask0_0_137" style="mask-type:luminance" maskUnits="userSpaceOnUse" x="23" y="34" width="18" height="17">
<path fill-rule="evenodd" clip-rule="evenodd" d="M40.1636 34.4355H23.2003V50.012H40.1636V34.4355Z" fill="white"/>
</mask>
<g mask="url(#mask0_0_137)">
<path fill-rule="evenodd" clip-rule="evenodd" d="M40.1636 45.2012L39.3379 41.4888L31.0912 35.0506C29.8872 34.106 28.1502 34.2662 27.1404 35.4155L23.9105 39.0898C22.851 40.2975 22.9928 42.1359 24.2263 43.167L31.7418 49.3077L36.269 50.012L40.1636 45.2012Z" fill="#4F5FA8"/>
</g>
<path fill-rule="evenodd" clip-rule="evenodd" d="M107.886 104.998L108.163 104.677L39.3947 46.2077L39.1174 46.5294L107.886 104.998Z" fill="white"/>
<path fill-rule="evenodd" clip-rule="evenodd" d="M106.904 106.152L107.181 105.83L38.4136 47.3617L38.1362 47.6834L106.904 106.152Z" fill="white"/>
<path fill-rule="evenodd" clip-rule="evenodd" d="M106.007 107.533L106.285 107.212L37.5173 48.7431L37.24 49.0647L106.007 107.533Z" fill="white"/>
<path fill-rule="evenodd" clip-rule="evenodd" d="M38.6889 63.0285C39.8034 66.7854 48.9811 69.4912 48.9811 65.6216C48.9811 57.3864 50.4949 61.0759 53.1309 59.1919C55.5011 57.4979 45.5858 48.9112 42.8256 51.4767C40.7983 53.361 40.1636 57.3864 40.1636 57.3864C40.1636 57.3864 40.7099 52.2498 38.1363 51.4767C34.1175 50.2695 38.6269 62.82 38.6889 63.0285Z" fill="#FCC9A7"/>
<path fill-rule="evenodd" clip-rule="evenodd" d="M91.0401 96.8408L107.958 96.2153L106.521 89.1478L93.0008 89.8763L91.0401 96.8408Z" fill="#FCC9A7"/>
<path fill-rule="evenodd" clip-rule="evenodd" d="M83.2885 87.8301C83.0673 89.9348 82.9836 94.3694 85.811 96.8377C88.6384 99.3059 98.1662 97.5025 98.6946 94.26C99.223 91.0175 94.2165 86.5389 94.2165 86.5389C94.2165 86.5389 86.4715 85.2699 86.8861 86.6087C87.3982 88.2621 90.6051 88.9827 90.849 89.2827C92.1557 90.8901 83.5056 85.7647 83.2885 87.8301Z" fill="#FCC9A7"/>
<path fill-rule="evenodd" clip-rule="evenodd" d="M65.5482 93.3999C65.6683 93.6237 65.7936 93.8906 65.8907 94.1309C67.2698 97.6208 65.5456 101.562 62.0371 102.935C58.5298 104.308 54.5662 102.592 53.1871 99.1032L41.3079 73.512L50.7331 69.8734L65.5482 93.3999Z" fill="url(#paint2_linear_0_137)"/>
<path fill-rule="evenodd" clip-rule="evenodd" d="M112.213 69.5279C119.421 75.6028 117.906 79.2352 126.139 87.5728C121.204 86.535 101.49 87.8641 101.49 87.8641L101.798 98.1253L135.236 99.2695C138.831 99.3674 141.829 96.7115 141.934 93.3386C141.949 92.8085 141.893 92.2923 141.774 91.7977L141.643 91.2841C140.543 87.6239 139.318 83.9929 137.656 80.5716C136.903 78.821 135.949 77.1797 135.079 75.4926C134.113 73.8627 133.186 72.2061 132.122 70.6385C130.053 67.4639 127.797 64.4165 125.328 61.5241C124.093 60.0786 122.819 58.6598 121.484 57.2753C120.809 56.5862 118.514 54.1782 117.805 53.5006C117.805 53.5006 108.843 50.012 104.845 50.012C107.89 56.5059 109.458 67.2059 112.213 69.5279Z" fill="url(#paint3_linear_0_137)"/>
<path d="M117.906 76.1377C117.906 76.1377 115.5 73.1615 112.214 69.528" stroke="#F57E23" stroke-width="0.5" stroke-linecap="round" stroke-linejoin="round"/>
<path d="M126.673 87.8761C126.673 87.8761 131.057 89.0699 131.057 92.734" stroke="#F57E23" stroke-width="0.5" stroke-linecap="round" stroke-linejoin="round"/>
</g>
<defs>
<filter id="filter0_d_0_137" x="21.2002" y="0.852295" width="134.736" height="265.709" filterUnits="userSpaceOnUse" color-interpolation-filters="sRGB">
<feFlood flood-opacity="0" result="BackgroundImageFix"/>
<feColorMatrix in="SourceAlpha" type="matrix" values="0 0 0 0 0 0 0 0 0 0 0 0 0 0 0 0 0 0 127 0" result="hardAlpha"/>
<feOffset dx="6"/>
<feGaussianBlur stdDeviation="4"/>
<feColorMatrix type="matrix" values="0 0 0 0 0.0976627 0 0 0 0 0.18379 0 0 0 0 0.376642 0 0 0 0.15 0"/>
<feBlend mode="normal" in2="BackgroundImageFix" result="effect1_dropShadow_0_137"/>
<feBlend mode="normal" in="SourceGraphic" in2="effect1_dropShadow_0_137" result="shape"/>
</filter>
<linearGradient id="paint0_linear_0_137" x1="65.9292" y1="64.799" x2="78.1432" y2="76.0261" gradientUnits="userSpaceOnUse">
<stop stop-color="#FFBB5F"/>
<stop offset="1" stop-color="#EA7C34"/>
</linearGradient>
<linearGradient id="paint1_linear_0_137" x1="96.871" y1="23.7967" x2="158.542" y2="75.2767" gradientUnits="userSpaceOnUse">
<stop stop-color="#FFBB5F"/>
<stop offset="1" stop-color="#FF9C5B"/>
</linearGradient>
<linearGradient id="paint2_linear_0_137" x1="56.5556" y1="66.6485" x2="64.1636" y2="79.2047" gradientUnits="userSpaceOnUse">
<stop stop-color="#FFBB5F"/>
<stop offset="1" stop-color="#FF9C5B"/>
</linearGradient>
<linearGradient id="paint3_linear_0_137" x1="118.159" y1="43.4573" x2="139.574" y2="67.9188" gradientUnits="userSpaceOnUse">
<stop stop-color="#FFBB5F"/>
<stop offset="1" stop-color="#FF9C5B"/>
</linearGradient>
<clipPath id="clip0_0_137">
<rect width="177" height="55" fill="white" transform="translate(0 250)"/>
</clipPath>
</defs>
</svg>
