<svg width="177" height="288" viewBox="0 0 177 288" fill="none" xmlns="http://www.w3.org/2000/svg">
<rect y="233" width="176.22" height="54.9" rx="27.45" fill="#156cb3"/>
<path fill-rule="evenodd" clip-rule="evenodd" d="M121.424 62.8606L93.7861 51.9332L99.2843 38.1498L129.63 50.5052L121.424 62.8606Z" fill="#4DB391"/>
<path fill-rule="evenodd" clip-rule="evenodd" d="M93.0991 216.005L94.479 227.168L104.228 225.702L102.796 214.732L93.0991 216.005Z" fill="#FCC9A7"/>
<path fill-rule="evenodd" clip-rule="evenodd" d="M93.2428 224.874C93.447 224.278 94.1679 224.038 94.6809 224.407C95.6855 225.132 97.4691 225.991 100.041 225.686C102.713 225.367 103.665 223.96 104.005 222.963C104.184 222.438 104.747 222.154 105.265 222.361L121.822 228.967C122.828 229.369 123.633 230.151 124.057 231.144C124.456 232.076 123.775 233.112 122.757 233.121L94.6262 233.325C93.5195 233.333 92.6324 232.416 92.6811 231.316L92.9257 225.912C92.9293 225.822 92.9471 225.734 92.9756 225.649L93.2428 224.874Z" fill="#1F252A"/>
<path fill-rule="evenodd" clip-rule="evenodd" d="M64.8472 217.127L63.7583 228.291L73.5077 227.884L74.5444 215.854L64.8472 217.127Z" fill="#FCC9A7"/>
<path fill-rule="evenodd" clip-rule="evenodd" d="M105.488 94.2097L108.717 158.921L105.975 219.694H91.0655L91.5821 159.792L83.5867 96.8895L105.488 94.2097Z" fill="#0C2C40"/>
<path fill-rule="evenodd" clip-rule="evenodd" d="M68.9664 98.4474L65.7732 159.817L62.1228 219.636H76.5094L84.6247 160.47L91.7782 94.2096L68.9664 98.4474Z" fill="#0C2C40"/>
<path fill-rule="evenodd" clip-rule="evenodd" d="M78.0268 37.0332L59.2346 45.0036C56.9831 45.9591 61.0363 63.3538 61.7441 65.8113C61.7441 65.8113 68.9663 102.439 65.5509 116.998C61.0524 124.999 73.1362 124.907 75.6074 124.884C90.6581 124.743 98.3334 123.624 102.5 122.506C109.776 120.552 107.601 111.216 107.601 111.216C107.601 111.216 107.917 97.855 107.601 92.3061C106.579 74.3275 102.23 42.8495 102.23 42.8495C102.187 40.2422 100.238 38.1184 97.7809 38.0001L78.0268 37.0332Z" fill="#2EC4AE"/>
<path fill-rule="evenodd" clip-rule="evenodd" d="M72.5892 37.0632C72.5892 37.0632 69.0564 37.2429 69.2345 40.7821C69.4103 44.319 73.1414 49.0061 81.0395 46.9918C88.9399 44.9786 88.7974 35.4922 84.7623 35.3787C80.7272 35.2664 72.5892 37.0632 72.5892 37.0632" fill="white"/>
<path fill-rule="evenodd" clip-rule="evenodd" d="M79.6516 44.2228V44.2228C76.0036 44.9888 72.4198 42.6671 71.6503 39.0345L69.3928 28.4026L82.6073 25.6246L84.8636 36.2565C85.6331 39.8892 83.3008 43.4556 79.6516 44.2228" fill="#FCC9A7"/>
<path fill-rule="evenodd" clip-rule="evenodd" d="M70.0496 32.1698C70.0496 32.1698 74.4338 38.3888 80.8332 36.1877C86.4347 34.2633 82.8508 27.8326 82.8508 27.8326L70.0496 32.1698Z" fill="#F4BE9A"/>
<path fill-rule="evenodd" clip-rule="evenodd" d="M78.7887 33.2144L77.6095 33.4307C71.7064 34.5147 66.0385 30.6291 64.9508 24.7528L63.7098 18.0597C62.6209 12.1835 66.5242 6.54126 72.4273 5.45845L73.6053 5.24094C79.5083 4.15695 85.1763 8.04254 86.2652 13.9188L87.5049 20.6119C88.5939 26.4882 84.6918 32.1304 78.7887 33.2144" fill="#FCC9A7"/>
<path fill-rule="evenodd" clip-rule="evenodd" d="M78.7887 33.2144L77.6095 33.4307C71.7064 34.5147 66.0385 30.6291 64.9508 24.7528L63.7098 18.0597C62.6209 12.1835 66.5242 6.54126 72.4273 5.45845L73.6053 5.24094C79.5083 4.15695 85.1763 8.04254 86.2652 13.9188L87.5049 20.6119C88.5939 26.4882 84.6918 32.1304 78.7887 33.2144" fill="#FCC9A7"/>
<path fill-rule="evenodd" clip-rule="evenodd" d="M64.8051 26.7007C65.6408 26.3664 69.1365 23.4348 69.7219 22.0058C70.5287 20.0379 70.7972 16.7821 68.2052 14.2433C67.7691 13.8161 67.5124 13.2491 67.5229 12.6478C67.5438 11.5621 68.0756 10.1421 70.7723 10.2692C75.0919 10.4726 85.2122 12.2257 85.8684 5.32766C86.6936 -3.35276 61.5815 -0.215449 62.0717 6.13494C57.3133 8.68948 58.0546 10.2986 58.7974 15.8871C59.5401 21.4755 64.8051 26.7007 64.8051 26.7007Z" fill="#1C2226"/>
<path fill-rule="evenodd" clip-rule="evenodd" d="M67.6775 21.8996C68.6731 23.7647 68.5285 25.9777 67.3545 26.8425C66.18 27.7062 64.4202 26.8946 63.4246 25.0295C62.4285 23.1633 62.5736 20.9514 63.7476 20.0866C64.9228 19.2227 66.6819 20.0345 67.6775 21.8996" fill="#FCC9A7"/>
<path fill-rule="evenodd" clip-rule="evenodd" d="M95.0182 16.4796C99.4805 18.4843 126.346 50.5052 126.346 50.5052C128.783 51.6918 122.176 45.9195 122.779 40.0245C120.044 37.0332 118.358 33.5833 120.044 31.3835C121.729 29.1837 131.499 28.7923 141.937 35.9541C152.375 43.1158 144.274 48.4353 144.274 48.4353C144.274 51.5726 155.211 70.8337 145.732 77.4594C133.034 86.3347 118.446 59.0374 118.446 59.0374L93.5917 21.3872C93.5917 21.3872 92.644 19.5869 90.6194 20.7146C88.09 22.1261 82.2005 28.3858 82.6512 27.6536C83.102 26.9214 82.3336 28.5066 81.9287 26.9214C82.5065 26.9214 81.9966 26.5794 82.6512 25.6888C84.9366 22.5797 90.4048 14.407 95.0182 16.4796Z" fill="#FFE686"/>
<ellipse cx="84.7105" cy="24.3954" rx="2.7818" ry="2.93191" fill="#395A6F"/>
<path d="M81.2747 25.6888C80.3107 27.1726 81.9288 29.3461 83.058 28.5035" stroke="#E1A176" stroke-width="1.1782" stroke-linecap="round" stroke-linejoin="round"/>
<path fill-rule="evenodd" clip-rule="evenodd" d="M131.266 63.2525C129.333 60.9891 128.064 58.8994 128.431 58.5856C128.798 58.2723 127.697 56.3218 129.63 58.5856C131.563 60.849 135.43 66.7822 135.43 66.7822C135.063 67.0959 133.199 65.5163 131.266 63.2525Z" fill="#E9AE3C"/>
<ellipse cx="133.804" cy="38.0616" rx="12.4586" ry="3.54928" transform="rotate(25 133.804 38.0616)" fill="#E9AE3C"/>
<path fill-rule="evenodd" clip-rule="evenodd" d="M100.674 25.8712L103.24 23.8084C103.688 23.4491 104.347 23.533 104.689 23.994L104.741 24.065C105.069 24.5071 104.981 25.1289 104.542 25.4622L101.923 27.4541C101.521 27.7602 100.952 27.7212 100.595 27.3666C100.169 26.9422 100.206 26.2459 100.674 25.8712" fill="#E9AE3C"/>
<path fill-rule="evenodd" clip-rule="evenodd" d="M103.336 28.7516L105.903 26.69C106.351 26.3294 107.008 26.4133 107.35 26.8744L107.404 26.9453C107.732 27.3874 107.643 28.0092 107.204 28.3425L104.585 30.3344C104.182 30.6406 103.613 30.6027 103.256 30.2469C102.831 29.8225 102.868 29.1263 103.336 28.7516" fill="#E9AE3C"/>
<path fill-rule="evenodd" clip-rule="evenodd" d="M105.998 31.6318L108.564 29.5702C109.012 29.2096 109.671 29.2935 110.013 29.7546L110.065 29.8255C110.393 30.2676 110.305 30.8894 109.866 31.2228L107.247 33.2146C106.844 33.5208 106.276 33.4818 105.919 33.1271C105.493 32.7028 105.53 32.0065 105.998 31.6318" fill="#E9AE3C"/>
<path fill-rule="evenodd" clip-rule="evenodd" d="M108.66 34.512L111.226 32.4504C111.675 32.0898 112.332 32.1738 112.674 32.6348L112.727 32.7057C113.054 33.1478 112.967 33.7696 112.528 34.103L109.909 36.0948C109.506 36.401 108.937 36.362 108.58 36.0073C108.155 35.583 108.192 34.8867 108.66 34.512" fill="#E9AE3C"/>
<path fill-rule="evenodd" clip-rule="evenodd" d="M111.322 37.3922L113.888 35.3306C114.336 34.97 114.995 35.054 115.337 35.515L115.389 35.5859C115.717 36.028 115.628 36.6498 115.19 36.9832L112.57 38.975C112.168 39.2812 111.6 39.2422 111.243 38.8876C110.816 38.4632 110.853 37.7669 111.322 37.3922" fill="#E9AE3C"/>
<path fill-rule="evenodd" clip-rule="evenodd" d="M113.983 40.2725L116.55 38.2109C116.997 37.8504 117.656 37.9343 117.998 38.3953L118.051 38.4662C118.378 38.9084 118.291 39.5301 117.851 39.8635L115.233 41.8554C114.83 42.1615 114.261 42.1237 113.904 41.7679C113.479 41.3435 113.516 40.6472 113.983 40.2725" fill="#E9AE3C"/>
<mask id="mask0_18_78" style="mask-type:luminance" maskUnits="userSpaceOnUse" x="60" y="224" width="18" height="10">
<path fill-rule="evenodd" clip-rule="evenodd" d="M60.5952 224.172H77.2386V233.435H60.5952V224.172Z" fill="white"/>
</mask>
<g mask="url(#mask0_18_78)">
<path fill-rule="evenodd" clip-rule="evenodd" d="M63.5809 225.179L60.8877 229.858C60.4542 230.612 60.4946 231.574 61.0622 232.235C61.5147 232.76 62.321 233.228 63.7579 233.326C67.3643 233.573 75.7635 233.326 75.7635 233.326C75.7635 233.326 77.9758 232.552 76.9819 230.133C76.1898 228.208 75.0961 226.268 74.4264 225.146C74.0642 224.538 73.4099 224.172 72.7009 224.172H65.3265C64.6045 224.172 63.9395 224.557 63.5809 225.179" fill="#1F252A"/>
</g>
<path fill-rule="evenodd" clip-rule="evenodd" d="M118.573 51.0753L105.617 62.0323L101.557 55.7943L112.076 47.2086L118.573 51.0753Z" fill="#FCC9A7"/>
<path fill-rule="evenodd" clip-rule="evenodd" d="M118.573 40.6991C121.316 43.2939 127.597 46.6255 118.249 50.5052C111.832 56.8223 110.344 55.4456 107.602 52.8497C104.858 50.2549 108.338 45.8465 110.945 43.1158C113.552 40.3852 118.573 40.6991 118.573 40.6991Z" fill="#FCC9A7"/>
<path fill-rule="evenodd" clip-rule="evenodd" d="M129.63 56.1452C129.63 56.1452 125.376 57.6441 123.192 54.6205C121.008 51.5968 125.57 47.8483 125.57 47.8483L129.63 56.1452Z" fill="#FCC9A7"/>
<mask id="mask1_18_78" style="mask-type:luminance" maskUnits="userSpaceOnUse" x="55" y="43" width="67" height="42">
<path fill-rule="evenodd" clip-rule="evenodd" d="M55 43.8765H121.058V84.2333H55V43.8765Z" fill="white"/>
</mask>
<g mask="url(#mask1_18_78)">
<path fill-rule="evenodd" clip-rule="evenodd" d="M88.2012 84.1694C69.7771 81.7556 58.5695 63.9116 55.3181 53.2147C53.8219 48.2936 57.8059 43.4304 62.949 43.9092C65.8964 44.1822 68.3676 46.2072 69.2273 49.0277C70.7901 54.1557 79.9375 63.7874 85.0104 69.8875C89.6547 68.1108 96.1517 57.4546 104.939 51.8563L110.945 57.4546C106.656 72.6128 92.4596 83.5311 91.6164 83.8231C90.8291 84.095 90.0014 84.2333 89.1726 84.2333C88.8484 84.2333 88.523 84.212 88.2012 84.1694Z" fill="#6DD9B5"/>
</g>
</svg>
